<svg width="30" height="30" viewBox="0 0 30 30" fill="none" xmlns="http://www.w3.org/2000/svg">
<rect width="30" height="30" rx="15" fill="#7B3FC7"/>
<g clip-path="url(#clip0_345_10567)">
<path d="M21.3107 11.0095C21.6836 11.3772 21.6672 11.9837 21.275 12.3307L13.6576 19.0603L13.6314 19.0834C13.2534 19.4168 12.6864 19.4168 12.3084 19.0834L12.2822 19.0603L8.72517 15.92C8.33293 15.573 8.31654 14.9665 8.68947 14.5988L8.73459 14.5544C9.09532 14.1987 9.66982 14.1832 10.0492 14.5188L10.1005 14.5642L12.6388 16.8056C12.8279 16.9726 13.1118 16.9726 13.3009 16.8055L19.8996 10.9748L19.9509 10.9295C20.3303 10.5939 20.9048 10.6094 21.2655 10.965L21.3107 11.0095Z" fill="white"/>
</g>
<defs>
<clipPath id="clip0_345_10567">
<rect width="14" height="14" fill="white" transform="translate(8 8)"/>
</clipPath>
</defs>
</svg>
