<svg width="30" height="30" viewBox="0 0 30 30" fill="none" xmlns="http://www.w3.org/2000/svg">
<path d="M20.2375 2.5H9.7625C5.75 2.5 2.5 5.75 2.5 9.7625V12.8125C2.5 13.5 3.0625 14.0625 3.75 14.0625H26.25C26.9375 14.0625 27.5 13.5 27.5 12.8125V9.7625C27.5 5.75 24.25 2.5 20.2375 2.5ZM8.4375 10.3125C8.4375 10.825 8.0125 11.25 7.5 11.25C6.9875 11.25 6.5625 10.825 6.5625 10.3125V7.8125C6.5625 7.3 6.9875 6.875 7.5 6.875C8.0125 6.875 8.4375 7.3 8.4375 7.8125V10.3125ZM13.4375 10.3125C13.4375 10.825 13.0125 11.25 12.5 11.25C11.9875 11.25 11.5625 10.825 11.5625 10.3125V7.8125C11.5625 7.3 11.9875 6.875 12.5 6.875C13.0125 6.875 13.4375 7.3 13.4375 7.8125V10.3125ZM22.5 10H17.5C16.9875 10 16.5625 9.575 16.5625 9.0625C16.5625 8.55 16.9875 8.125 17.5 8.125H22.5C23.0125 8.125 23.4375 8.55 23.4375 9.0625C23.4375 9.575 23.0125 10 22.5 10Z" fill="white"/>
<path d="M2.5 20.2375C2.5 24.25 5.75 27.5 9.7625 27.5H20.225C24.25 27.5 27.5 24.25 27.5 20.2375V17.1875C27.5 16.5 26.9375 15.9375 26.25 15.9375H3.75C3.0625 15.9375 2.5 16.5 2.5 17.1875V20.2375ZM17.5 20.3125H22.5C23.0125 20.3125 23.4375 20.7375 23.4375 21.25C23.4375 21.7625 23.0125 22.1875 22.5 22.1875H17.5C16.9875 22.1875 16.5625 21.7625 16.5625 21.25C16.5625 20.7375 16.9875 20.3125 17.5 20.3125ZM11.5625 20C11.5625 19.4875 11.9875 19.0625 12.5 19.0625C13.0125 19.0625 13.4375 19.4875 13.4375 20V22.5C13.4375 23.0125 13.0125 23.4375 12.5 23.4375C11.9875 23.4375 11.5625 23.0125 11.5625 22.5V20ZM6.5625 20C6.5625 19.4875 6.9875 19.0625 7.5 19.0625C8.0125 19.0625 8.4375 19.4875 8.4375 20V22.5C8.4375 23.0125 8.0125 23.4375 7.5 23.4375C6.9875 23.4375 6.5625 23.0125 6.5625 22.5V20Z" fill="white"/>
</svg>
