<svg width="30" height="30" viewBox="0 0 30 30" fill="none" xmlns="http://www.w3.org/2000/svg">
<path fill-rule="evenodd" clip-rule="evenodd" d="M16.853 3C16.0498 3 15.2408 3.2815 14.5928 3.75597L10.942 6.42898C10.1872 6.98167 9.96589 7.95693 10.3631 8.74851C10.4199 8.8616 10.4892 8.97093 10.5715 9.07474C11.2315 9.90794 12.4699 10.0699 13.3354 9.43627L17.1469 6.6456C17.3011 6.53272 17.4892 6.4716 17.6826 6.4716H20.0451C20.2825 6.4716 20.5098 6.56347 20.6766 6.72663L26.1948 12.1281C26.2887 12.2201 26.4443 12.1979 26.5041 12.0809C27.5093 10.1134 27.3884 7.75487 26.1216 5.87342C25.4246 4.8383 24.4492 4.04814 23.3323 3.55753C23.3146 3.54976 23.2972 3.54144 23.2802 3.53258C23.1472 3.46366 22.9693 3.399 22.775 3.34043C21.8435 3.05953 20.8599 3.02341 19.887 3.01957C19.887 3.01957 19.0601 3.02992 19.0287 3.02992L16.853 3ZM8.48628 18.2237L8.51043 18.2007C8.90194 17.801 8.8942 17.172 8.48722 16.7812C8.12421 16.4326 7.56383 16.3891 7.15149 16.6504C7.09258 16.6878 7.03669 16.7313 6.98484 16.7812L5.62952 18.0826C5.21464 18.4809 5.21464 19.1267 5.62952 19.5252C6.03643 19.9159 6.69129 19.9234 7.10773 19.5477L7.13096 19.5251L8.48628 18.2237ZM8.36706 20.757C7.97553 21.1567 7.98327 21.7857 8.39025 22.1765C8.80513 22.5748 9.47777 22.5748 9.89265 22.1765L11.248 20.8751C11.6628 20.4768 11.6628 19.8308 11.248 19.4325C11.1971 19.3838 11.1424 19.3409 11.0847 19.304C10.6811 19.046 10.1341 19.0813 9.76974 19.41L9.74651 19.4327L8.39119 20.734L8.36706 20.757ZM5.16886 16.1076C5.58372 15.7093 5.58372 15.0633 5.16886 14.665C4.75398 14.2666 4.08134 14.2666 3.66646 14.665L2.31116 15.9663C1.89628 16.3647 1.89628 17.0106 2.31116 17.409C2.72602 17.8073 3.39866 17.8073 3.81354 17.409L5.16886 16.1076ZM14.0097 22.0841C14.4246 22.4825 14.4246 23.1284 14.0097 23.5268L12.6544 24.8281C12.5937 24.8864 12.5276 24.9361 12.4576 24.9773C12.0484 25.2181 11.5062 25.1683 11.152 24.8281C10.7977 24.4881 10.746 23.9675 10.9967 23.5744L11.0016 23.5669C11.0435 23.5024 11.0936 23.4415 11.152 23.3856L12.5073 22.0841C12.9222 21.6858 13.5948 21.6858 14.0097 22.0841ZM12.1946 3.1552C9.58415 2.7176 6.80011 3.46673 4.78399 5.40263C2.56396 7.53433 1.8425 10.5601 2.61964 13.2729C3.73616 12.3952 5.38568 12.4566 6.42758 13.4571C6.83231 13.8457 7.08948 14.3224 7.19906 14.8229C8.09328 14.6585 9.05385 14.9086 9.74614 15.5733C10.2808 16.0867 10.5579 16.7536 10.5775 17.4263C11.2777 17.4454 11.9719 17.7115 12.5063 18.2246C13.041 18.738 13.3181 19.405 13.3377 20.0775C14.0383 20.0964 14.7331 20.3625 15.2678 20.8759C16.3779 21.9419 16.3779 23.67 15.2678 24.7357L14.679 25.3011L16.2133 26.698C16.6659 27.11 17.3753 27.0997 17.815 26.675C18.2265 26.2772 18.2609 25.653 17.9181 25.2174L17.8322 25.1346C17.7992 25.1027 17.7694 25.0689 17.7426 25.0336L17.5258 24.8239C17.1794 24.4892 17.1794 23.9463 17.5258 23.6114C17.8723 23.2766 18.4341 23.2766 18.7805 23.6114L19.0697 23.8909C19.1293 23.9485 19.1857 24.0078 19.2391 24.069L19.3972 24.2218C19.8346 24.6445 20.5437 24.6445 20.9811 24.2218C21.4185 23.7991 21.4185 23.1139 20.9811 22.6912L20.6709 22.3915C20.4935 22.22 20.4069 21.994 20.4111 21.7693C20.4078 21.5457 20.4944 21.3213 20.6709 21.1507C21.0175 20.8159 21.5791 20.8159 21.9256 21.1507L22.1605 21.3779C22.6396 21.8407 23.4161 21.8407 23.895 21.3779C24.374 20.9149 24.374 20.1645 23.895 19.7017L23.8415 19.6499C23.7779 19.5965 23.7158 19.5406 23.6553 19.4822L22.0553 17.936C21.709 17.6011 21.709 17.0582 22.0553 16.7234C22.4019 16.3885 22.9637 16.3885 23.31 16.7234L24.8193 18.182C24.8527 18.206 24.8845 18.2328 24.9148 18.2619L25.044 18.3869C25.755 18.9502 26.8062 18.9111 27.47 18.2696C28.1769 17.5865 28.1769 16.4789 27.47 15.7957L25.9358 14.3131C25.9207 14.3003 25.9062 14.287 25.8922 14.2732L23.0392 11.4806L23.0314 11.488L19.8836 8.46546C19.6973 8.28664 19.4491 8.18678 19.191 8.18678H18.3075C18.0951 8.18678 17.8881 8.25444 17.7167 8.37994L14.4068 10.8034C12.763 12.007 10.4159 11.7 9.16234 10.1175C7.90663 8.53228 8.22374 6.26815 9.87031 5.06257L12.2351 3.33111C12.3055 3.27958 12.2806 3.16963 12.1946 3.1552Z" fill="white"/>
</svg>
