<svg width="30" height="30" viewBox="0 0 30 30" fill="none" xmlns="http://www.w3.org/2000/svg">
<path d="M26.95 13.425L25.25 11.45C24.925 11.075 24.6625 10.375 24.6625 9.87501V7.75001C24.6625 6.42501 23.575 5.33751 22.25 5.33751H20.125C19.6375 5.33751 18.925 5.07501 18.55 4.75001L16.575 3.05001C15.7125 2.31251 14.3 2.31251 13.425 3.05001L11.4625 4.76251C11.0875 5.07501 10.375 5.33751 9.8875 5.33751H7.725C6.4 5.33751 5.3125 6.42501 5.3125 7.75001V9.88751C5.3125 10.375 5.05 11.075 4.7375 11.45L3.05 13.4375C2.325 14.3 2.325 15.7 3.05 16.5625L4.7375 18.55C5.05 18.925 5.3125 19.625 5.3125 20.1125V22.25C5.3125 23.575 6.4 24.6625 7.725 24.6625H9.8875C10.375 24.6625 11.0875 24.925 11.4625 25.25L13.4375 26.95C14.3 27.6875 15.7125 27.6875 16.5875 26.95L18.5625 25.25C18.9375 24.925 19.6375 24.6625 20.1375 24.6625H22.2625C23.5875 24.6625 24.675 23.575 24.675 22.25V20.125C24.675 19.6375 24.9375 18.925 25.2625 18.55L26.9625 16.575C27.6875 15.7125 27.6875 14.2875 26.95 13.425ZM20.85 15L19.3875 19.45C19.2 20.1875 18.4125 20.7875 17.6125 20.7875H15.3C14.9 20.7875 14.3375 20.65 14.0875 20.4L12.25 18.9625C12.2125 19.7625 11.85 20.1 10.9625 20.1H10.3625C9.4375 20.1 9.0625 19.7375 9.0625 18.8625V12.8875C9.0625 12.0125 9.4375 11.65 10.3625 11.65H10.975C11.9 11.65 12.275 12.0125 12.275 12.8875V13.3375L14.7 9.73751C14.95 9.35001 15.5875 9.07501 16.125 9.28751C16.7125 9.48751 17.0875 10.1375 16.9625 10.7125L16.6625 12.6625C16.6375 12.8375 16.675 13 16.7875 13.125C16.8875 13.2375 17.0375 13.3125 17.2 13.3125H19.6375C20.1125 13.3125 20.5125 13.5 20.75 13.8375C20.9625 14.1625 21 14.575 20.85 15Z" fill="white"/>
</svg>
