<svg width="30" height="30" viewBox="0 0 30 30" fill="none" xmlns="http://www.w3.org/2000/svg">
<path d="M15.7034 14.6147L19.5966 12.1109C20.3539 11.6056 20.9736 10.9156 21.3991 10.1043C21.8245 9.29303 22.0419 8.38643 22.0313 7.46778C22.0313 5.16393 20.4315 3.15998 18.3187 3.00753C17.6211 2.96376 16.9247 3.11137 16.3029 3.43481C15.6811 3.75826 15.1568 4.24557 14.7853 4.84548C14.7614 4.88547 14.7278 4.91854 14.6876 4.94149C14.6474 4.96445 14.6021 4.97651 14.556 4.97651C14.5099 4.97651 14.4645 4.96445 14.4244 4.94149C14.3842 4.91854 14.3505 4.88547 14.3267 4.84548C13.93 4.20268 13.3581 3.69003 12.6801 3.36949C12.002 3.04894 11.2469 2.9342 10.5059 3.03914C8.51513 3.33368 7.08059 5.28149 7.08063 7.46771C7.07006 8.38636 7.28748 9.29297 7.71291 10.1043C8.13833 10.9156 8.75813 11.6055 9.51537 12.1108L13.4086 14.6146C13.7509 14.8375 14.1491 14.956 14.556 14.956C14.9629 14.956 15.3611 14.8375 15.7034 14.6147Z" fill="white"/>
<path d="M7.9204 16.4744H5.40087C5.34822 16.4744 5.29609 16.4849 5.24746 16.5053C5.19882 16.5257 5.15462 16.5557 5.1174 16.5934C5.08017 16.6311 5.05065 16.6759 5.0305 16.7252C5.01036 16.7745 4.99999 16.8273 5 16.8806V25.5937C5 25.7015 5.04223 25.8048 5.11741 25.881C5.19258 25.9572 5.29455 26 5.40087 26H7.9204C8.03516 26 8.1488 25.9771 8.25484 25.9326C8.36087 25.8881 8.45722 25.8229 8.53837 25.7407C8.61953 25.6585 8.68391 25.5609 8.72783 25.4534C8.77175 25.346 8.79436 25.2309 8.79436 25.1146V17.3598C8.79435 17.2435 8.77173 17.1283 8.72781 17.0209C8.68388 16.9135 8.6195 16.8159 8.53834 16.7337C8.45719 16.6515 8.36085 16.5863 8.25482 16.5418C8.14879 16.4973 8.03515 16.4744 7.9204 16.4744Z" fill="white"/>
<path d="M23.7577 17.4971C23.6245 17.2916 23.443 17.1229 23.2294 17.0063C23.0158 16.8897 22.7769 16.8288 22.5343 16.8291H21.5469C21.1233 16.8282 20.709 16.9552 20.3569 17.1939C20.0048 17.4326 19.7309 17.7721 19.57 18.1692C19.4746 18.4002 19.3416 18.6134 19.1766 18.7999C18.8962 19.2362 18.5167 19.5981 18.07 19.8554C17.6233 20.1127 17.1222 20.2579 16.6087 20.2788H13.6843C13.549 20.2755 13.4203 20.2186 13.3257 20.1205C13.2312 20.0223 13.1783 19.8906 13.1783 19.7534C13.1783 19.6162 13.2312 19.4845 13.3257 19.3863C13.4203 19.2882 13.549 19.2313 13.6843 19.228H16.595C16.9686 19.2186 17.3318 19.1012 17.6417 18.8896V18.8687C17.6427 18.6013 17.5915 18.3363 17.4912 18.0889C17.3909 17.8415 17.2434 17.6166 17.0571 17.4271C16.8708 17.2376 16.6495 17.0873 16.4058 16.9847C16.162 16.882 15.9007 16.8292 15.6367 16.8291H13.4906C13.0986 16.828 12.7101 16.9056 12.3477 17.0572C11.9853 17.2089 11.6561 17.4317 11.3791 17.7128L11.3239 17.7687C10.9179 18.1795 10.3965 18.4532 9.83105 18.5523V24.3571H17.6576C18.818 24.3578 19.9532 24.0134 20.9223 23.3666C21.8913 22.7197 22.6518 21.7989 23.1093 20.7183L23.8803 18.8999C23.9764 18.6741 24.0155 18.4277 23.9941 18.1828C23.9728 17.9379 23.8915 17.7022 23.7577 17.4971Z" fill="white"/>
</svg>
