<svg width="30" height="30" viewBox="0 0 30 30" fill="none" xmlns="http://www.w3.org/2000/svg">
<path fill-rule="evenodd" clip-rule="evenodd" d="M11.306 3C6.71562 3 2.90151 4.31193 2.13873 6.03774C2.09741 6.13123 2.12718 6.23939 2.20746 6.30267C2.65127 6.65242 3.3314 6.99417 4.22642 7.29251C5.92056 7.85723 8.2637 8.2268 10.8877 8.26247C10.9873 8.26382 11.0826 8.22223 11.1511 8.14993C12.8621 6.34445 15.1524 5.09354 17.7244 4.69494C18.0742 4.64073 18.1638 4.18356 17.8339 4.05537C16.1542 3.4027 13.8492 3 11.306 3ZM9.58381 22.1776C9.69867 22.1839 9.80339 22.2453 9.86631 22.3416C10.9052 23.9313 12.3271 25.2482 14.0008 26.1612C14.3106 26.3302 14.245 26.8159 13.8944 26.8559C13.0727 26.9496 12.2043 26.9999 11.3061 26.9999C6.1665 26.9999 2.00001 25.3552 2.00001 23.3264C2.00001 22.5162 2.00001 21.7404 2.00037 20.9975C2.0005 20.7235 2.30165 20.5505 2.54805 20.6703C2.93913 20.8605 3.37285 21.0334 3.83921 21.1889C5.38513 21.7042 7.37649 22.0561 9.58381 22.1776ZM7.68154 15.6429C7.86449 15.6653 8.00083 15.8229 8.00002 16.0072C7.99994 16.0244 7.99991 16.0415 7.99991 16.0587C7.99991 17.5811 8.29574 19.0344 8.83305 20.3643C8.93415 20.6145 8.74117 20.8916 8.47257 20.8655C6.83384 20.7057 5.37974 20.4117 4.22642 20.0272C3.3314 19.7289 2.65127 19.3871 2.20746 19.0374C2.1746 19.0115 2.14347 18.9859 2.11399 18.9607C2.04113 18.8983 2.003 18.8056 2.00322 18.7096C2.00644 17.3042 2.0129 16.0356 2.02585 14.8912C2.0249 14.8095 2.02399 14.7273 2.02311 14.6444C2.02019 14.3694 2.32168 14.1937 2.56929 14.3132C2.95482 14.4994 3.38127 14.6689 3.83921 14.8215C4.92632 15.1839 6.23369 15.4654 7.68154 15.6429ZM9.42951 9.434C9.70841 9.45079 9.86689 9.76877 9.71963 10.0062C8.95363 11.2414 8.41508 12.6324 8.1625 14.1208C8.13051 14.3093 7.95861 14.4436 7.7689 14.4199C6.4168 14.2508 5.21183 13.9883 4.22642 13.6599C3.3314 13.3615 2.65127 13.0198 2.20746 12.67C2.17622 12.6454 2.14654 12.6211 2.11837 12.597C2.04572 12.5351 2.00733 12.4431 2.00693 12.3476C2.00169 11.1068 2.00035 9.74883 2 8.26313C1.99994 7.98897 2.30129 7.81558 2.54784 7.9355C2.93898 8.12575 3.37276 8.29869 3.83921 8.45417C5.34903 8.95744 7.28371 9.30485 9.42951 9.434Z" fill="white"/>
<path fill-rule="evenodd" clip-rule="evenodd" d="M19.585 25.67C24.8786 25.67 29.17 21.3786 29.17 16.085C29.17 10.7914 24.8786 6.5 19.585 6.5C14.2914 6.5 10 10.7914 10 16.085C10 21.3786 14.2914 25.67 19.585 25.67ZM24.4365 15.0848C24.6597 15.3168 24.4953 15.7031 24.1735 15.7031H21.8569C21.6552 15.7031 21.4918 15.8665 21.4918 16.0681V21.4709C21.4918 21.6726 21.3283 21.836 21.1267 21.836H18.1243C17.9227 21.836 17.7592 21.6726 17.7592 21.4709V16.0681C17.7592 15.8665 17.5958 15.7031 17.3942 15.7031H15.0787C14.7569 15.7031 14.5925 15.3168 14.8157 15.0848L19.363 10.3591C19.5067 10.2098 19.7455 10.2098 19.8892 10.3591L24.4365 15.0848Z" fill="white"/>
</svg>
