<svg width="30" height="30" viewBox="0 0 30 30" fill="none" xmlns="http://www.w3.org/2000/svg">
<path d="M2.25 11.3C2.25 9.22892 3.92893 7.54999 6 7.54999H24C26.0711 7.54999 27.75 9.22892 27.75 11.3V24.05H2.25V11.3Z" stroke="white" stroke-width="1.5"/>
<path d="M0 24.425C0 23.8037 0.50368 23.3 1.125 23.3H28.875C29.4963 23.3 30 23.8037 30 24.425C30 26.2889 28.489 27.8 26.625 27.8H3.375C1.51104 27.8 0 26.2889 0 24.425Z" fill="white"/>
<path fill-rule="evenodd" clip-rule="evenodd" d="M21 8.00006C21 8.00004 21 8.00002 21 8C21 4.68629 18.3137 2 15 2C11.6863 2 9 4.68629 9 8C9 8.02189 9.00012 8.04375 9.00035 8.06558C9.01749 9.96278 9.77857 11.7786 11.1214 13.1214L14.3302 16.3302C14.6936 16.6936 15.288 16.6762 15.6294 16.2921L19.1385 12.3443C20.2539 11.2814 20.9605 9.7933 20.9984 8.14002C20.9995 8.09342 21.0001 8.04677 21.0001 8.00006H21Z" fill="white"/>
<path fill-rule="evenodd" clip-rule="evenodd" d="M15.0002 5C14.586 5 14.2502 5.33579 14.2502 5.75C14.2502 6.16421 14.586 6.5 15.0002 6.5C15.4144 6.5 15.7502 6.16421 15.7502 5.75C15.7502 5.33579 15.4144 5 15.0002 5ZM15.0001 7.24998C14.5859 7.24998 14.2501 7.58577 14.2501 7.99998V11C14.2501 11.4142 14.5859 11.75 15.0001 11.75C15.4144 11.75 15.7501 11.4142 15.7501 11V7.99998C15.7501 7.58577 15.4144 7.24998 15.0001 7.24998Z" fill="#7B3FC7"/>
</svg>
