<svg width="1116" height="389" viewBox="0 0 1116 389" fill="none" xmlns="http://www.w3.org/2000/svg">
<g clip-path="url(#clip0_682_867)">
<g opacity="0.0636858">
<mask id="mask0_682_867" style="mask-type:luminance" maskUnits="userSpaceOnUse" x="-217" y="-487" width="1477" height="1816">
<path fill-rule="evenodd" clip-rule="evenodd" d="M-216.602 -116.306L905.777 -486.503L1259.05 957.951L136.676 1328.15L-216.602 -116.306Z" fill="white"/>
</mask>
<g mask="url(#mask0_682_867)">
<path fill-rule="evenodd" clip-rule="evenodd" d="M1069.85 98.7727C1067.92 88.6195 1061.96 80.5623 1053.89 77.2227L278.102 -244.219C271.849 -246.812 265.11 -246.261 259.128 -242.673C253.151 -239.081 248.643 -232.881 246.446 -225.211L-26.6055 726.015C-28.1715 731.471 -28.4415 737.304 -27.3852 742.874C-25.4589 753.028 -19.4937 761.082 -11.43 764.429L764.358 1085.87C770.616 1088.46 777.349 1087.91 783.334 1084.32C789.31 1080.73 793.82 1074.53 796.018 1066.86L1069.07 115.638C1070.64 110.178 1070.9 104.344 1069.85 98.7727ZM-29.4913 743.5C-30.6384 737.44 -30.3433 731.103 -28.6404 725.17L244.406 -226.055C246.799 -234.391 251.697 -241.132 258.197 -245.037C264.698 -248.939 272.02 -249.535 278.819 -246.719L1054.61 74.7233C1063.38 78.3573 1069.86 87.1127 1071.95 98.1491C1073.1 104.208 1072.81 110.544 1071.1 116.482L798.053 1067.7C795.662 1076.04 790.766 1082.78 784.265 1086.68C777.768 1090.59 770.442 1091.18 763.64 1088.36L-12.1459 766.92C-20.912 763.291 -27.3989 754.535 -29.4913 743.5Z" fill="#DADADA"/>
</g>
<path fill-rule="evenodd" clip-rule="evenodd" d="M1037.86 100.389C1036.01 90.6476 1030.31 82.8494 1022.61 79.5249L269.83 -245.569C263.77 -248.191 257.205 -247.757 251.346 -244.353C245.488 -240.945 241.041 -234.975 238.818 -227.54L-36.9342 695.637C-38.5509 701.058 -38.8506 706.857 -37.7972 712.41C-35.9498 722.152 -30.2503 729.953 -22.5501 733.27L730.232 1058.37C742.75 1063.77 756.659 1055.69 761.242 1040.34L1036.99 117.163C1038.61 111.744 1038.91 105.941 1037.86 100.389ZM-39.8969 713.033C-41.0458 706.987 -40.7191 700.667 -38.956 694.763L236.797 -228.413C239.216 -236.512 244.063 -243.015 250.442 -246.726C256.822 -250.435 263.973 -250.907 270.577 -248.056L1023.36 77.0426C1031.75 80.6622 1037.95 89.155 1039.97 99.7631C1041.11 105.816 1040.79 112.137 1039.02 118.04L763.27 1041.22C758.279 1057.93 743.122 1066.75 729.492 1060.86L-23.2897 735.762C-31.6752 732.142 -37.8856 723.647 -39.8969 713.033Z" fill="#DADADA"/>
<path fill-rule="evenodd" clip-rule="evenodd" d="M1005.87 101.999C1004.1 92.6751 998.665 85.1319 991.333 81.8254L261.559 -246.923C249.441 -252.381 235.821 -244.73 231.195 -229.866L-47.2585 665.263C-48.9331 670.638 -49.2622 676.412 -48.2116 681.953C-46.4434 691.278 -41.0075 698.818 -33.6714 702.121L696.098 1030.88C701.973 1033.52 708.36 1033.2 714.097 1029.98C719.836 1026.76 724.228 1021.02 726.468 1013.82L1004.92 118.684C1006.59 113.311 1006.92 107.54 1005.87 101.999ZM-50.3158 682.574C-51.4625 676.524 -51.1051 670.226 -49.2769 664.359L229.178 -230.773C234.228 -247.003 249.099 -255.355 262.327 -249.396L992.1 79.3528C1000.11 82.9638 1006.05 91.1986 1007.98 101.378C1009.12 107.427 1008.77 113.726 1006.94 119.596L728.485 1014.73C726.037 1022.59 721.245 1028.85 714.98 1032.37C708.719 1035.89 701.741 1036.24 695.335 1033.35L-34.4397 704.599C-42.4482 700.989 -48.3844 692.759 -50.3158 682.574Z" fill="#DADADA"/>
<path fill-rule="evenodd" clip-rule="evenodd" d="M973.898 103.612C972.204 94.6952 967.03 87.4158 960.055 84.1328L253.291 -248.271C247.61 -250.941 241.393 -250.739 235.779 -247.702C230.17 -244.666 225.833 -239.156 223.576 -232.189L-57.5866 634.899C-59.3143 640.237 -59.6767 645.974 -58.6285 651.5C-56.9379 660.415 -51.7653 667.695 -44.7885 670.977L661.98 1003.38C673.696 1008.89 687.027 1001.68 691.693 987.301L972.857 120.213C974.585 114.879 974.945 109.14 973.898 103.612ZM-60.7277 652.121C-61.8769 646.074 -61.4818 639.789 -59.5878 633.955L221.571 -233.131C224.045 -240.756 228.789 -246.785 234.929 -250.11C241.071 -253.433 247.875 -253.652 254.091 -250.732L960.855 81.6742C968.49 85.2637 974.151 93.2317 976.003 102.989C977.147 109.038 976.759 115.321 974.863 121.159L693.702 988.243C688.595 1003.98 674.01 1011.88 661.183 1005.84L-45.5814 673.435C-53.2169 669.845 -58.8778 661.883 -60.7277 652.121Z" fill="#DADADA"/>
<path fill-rule="evenodd" clip-rule="evenodd" d="M941.914 105.224C940.3 96.7106 935.385 89.6875 928.766 86.4345L245.012 -249.625C239.526 -252.319 233.481 -252.234 227.992 -249.379C222.499 -246.525 218.224 -241.247 215.946 -234.515L-67.9209 604.527C-69.7118 609.813 -70.104 615.519 -69.0578 621.036C-67.4441 629.549 -62.5274 636.571 -55.9097 639.826L627.845 975.886C633.334 978.578 639.375 978.492 644.867 975.638C650.357 972.786 654.635 967.504 656.914 960.772L940.779 121.734C942.571 116.449 942.96 110.737 941.914 105.224ZM-71.1615 621.66C-72.3074 615.605 -71.8773 609.347 -69.9158 603.54L213.952 -235.494C216.451 -242.879 221.146 -248.672 227.166 -251.8C233.19 -254.932 239.82 -255.027 245.842 -252.069L929.592 83.9899C936.855 87.5566 942.248 95.2615 944.018 104.598C945.166 110.651 944.735 116.916 942.778 122.717L658.908 961.753C656.41 969.145 651.715 974.936 645.692 978.06C639.67 981.197 633.037 981.291 627.022 978.332L-56.7374 642.275C-63.9976 638.705 -69.3893 630.998 -71.1615 621.66Z" fill="#DADADA"/>
<path fill-rule="evenodd" clip-rule="evenodd" d="M909.949 106.829C908.411 98.7192 903.755 91.9573 897.49 88.7369L236.742 -250.977C225.812 -256.596 213.064 -250.256 208.325 -236.842L-78.248 574.158C-80.0972 579.389 -80.5273 585.072 -79.4837 590.579C-77.9462 598.691 -73.2869 605.449 -67.0235 608.671L593.723 948.382C599.021 951.11 604.891 951.135 610.256 948.468C615.625 945.792 619.847 940.745 622.141 934.249L908.715 123.254C910.567 118.015 910.995 112.333 909.949 106.829ZM-81.5865 591.207C-82.7368 585.15 -82.2647 578.903 -80.2279 573.139L206.342 -237.856C211.555 -252.61 225.577 -259.585 237.599 -253.407L898.35 86.3087C905.237 89.8467 910.359 97.2873 912.052 106.205C913.201 112.26 912.73 118.509 910.695 124.277L624.121 935.266C621.598 942.417 616.951 947.971 611.05 950.906C605.146 953.846 598.688 953.816 592.865 950.817L-67.8826 611.105C-74.7734 607.565 -79.8963 600.125 -81.5865 591.207Z" fill="#DADADA"/>
<path fill-rule="evenodd" clip-rule="evenodd" d="M877.985 108.435C876.504 100.613 872.209 94.2712 866.209 91.0396L228.47 -252.33C223.365 -255.073 217.67 -255.219 212.423 -252.731C207.177 -250.244 203.016 -245.424 200.702 -239.16L-88.5762 543.789C-90.4958 548.984 -90.9602 554.63 -89.9173 560.124C-88.4324 567.949 -84.1351 574.293 -78.1374 577.523L559.603 920.893C570.138 926.565 582.593 920.658 587.369 907.724L876.645 124.778C878.564 119.585 879.029 113.934 877.985 108.435ZM-92.0241 560.746C-93.175 554.691 -92.6641 548.458 -90.5491 542.728L198.728 -240.217C201.283 -247.129 205.872 -252.444 211.659 -255.185C217.443 -257.929 223.729 -257.77 229.356 -254.741L867.093 88.6245C873.712 92.1895 878.446 99.1803 880.086 107.814C881.236 113.879 880.724 120.108 878.604 125.834L589.331 908.783C584.059 923.048 570.322 929.559 558.703 923.309L-79.0338 579.944C-85.654 576.378 -90.389 569.383 -92.0241 560.746Z" fill="#DADADA"/>
<path fill-rule="evenodd" clip-rule="evenodd" d="M846.027 110.044C844.618 102.615 840.573 96.5315 834.924 93.3388L220.195 -253.677C215.283 -256.453 209.757 -256.713 204.632 -254.405C199.509 -252.101 195.405 -247.513 193.07 -241.48L-98.9069 513.42C-100.899 518.568 -101.4 524.186 -100.359 529.677C-98.9509 537.104 -94.9022 543.191 -89.2553 546.383L525.474 893.403C530.388 896.173 535.913 896.43 541.037 894.126C546.157 891.827 550.262 887.237 552.596 881.205L844.574 126.301C846.567 121.157 847.071 115.533 846.027 110.044ZM-102.462 530.305C-103.614 524.23 -103.056 518.012 -100.856 512.323L191.121 -242.579C193.702 -249.252 198.244 -254.329 203.91 -256.876C209.577 -259.426 215.69 -259.14 221.121 -256.072L835.848 90.9463C842.101 94.4752 846.571 101.21 848.133 109.42C849.282 115.492 848.729 121.71 846.53 127.406L554.546 882.302C551.969 888.978 547.426 894.054 541.762 896.604C536.094 899.147 529.981 898.866 524.552 895.795L-90.1808 548.776C-96.4296 545.248 -100.903 538.517 -102.462 530.305Z" fill="#DADADA"/>
<path fill-rule="evenodd" clip-rule="evenodd" d="M814.072 111.644C812.739 104.614 808.935 98.7806 803.633 95.6379L211.91 -255.036C207.193 -257.835 201.84 -258.205 196.84 -256.082C191.841 -253.962 187.79 -249.6 185.441 -243.802L-109.244 483.054C-111.282 488.074 -111.837 493.821 -110.812 499.227C-109.477 506.256 -105.672 512.091 -100.374 515.23L491.349 865.909C496.064 868.704 501.418 869.077 506.423 866.956C511.418 864.835 515.469 860.475 517.822 854.679L812.503 127.82C814.542 122.798 815.099 117.05 814.072 111.644ZM-112.914 499.856C-114.05 493.854 -113.437 487.478 -111.174 481.911L183.51 -244.946C186.116 -251.376 190.608 -256.217 196.157 -258.572C201.705 -260.926 207.643 -260.511 212.878 -257.408L804.599 93.2677C810.478 96.7502 814.697 103.222 816.176 111.02C817.313 117.02 816.695 123.39 814.438 128.966L519.754 855.824C517.147 862.25 512.655 867.092 507.108 869.446C501.563 871.799 495.623 871.389 490.387 868.281L-101.336 517.602C-107.215 514.123 -111.433 507.65 -112.914 499.856Z" fill="#DADADA"/>
<path fill-rule="evenodd" clip-rule="evenodd" d="M782.127 113.24C780.867 106.6 777.303 101.022 772.345 97.9327L203.633 -256.393C199.104 -259.216 193.921 -259.702 189.047 -257.762C184.17 -255.821 180.177 -251.688 177.807 -246.121L-119.579 452.687C-121.695 457.657 -122.295 463.372 -121.27 468.781C-120.009 475.421 -116.446 480.999 -111.493 484.089L457.222 838.412C466.569 844.24 478.156 839.633 483.046 828.145L780.436 129.334C782.552 124.363 783.151 118.649 782.127 113.24ZM-123.373 469.41C-124.512 463.39 -123.845 457.028 -121.493 451.498L175.896 -247.31C178.532 -253.504 182.971 -258.104 188.399 -260.262C193.828 -262.421 199.593 -261.883 204.634 -258.74L773.347 95.5877C778.863 99.0221 782.827 105.229 784.23 112.618C785.37 118.635 784.703 124.994 782.35 130.53L484.958 829.341C479.517 842.125 466.623 847.252 456.222 840.766L-112.491 486.439C-118.005 483.005 -121.971 476.793 -123.373 469.41Z" fill="#DADADA"/>
<path fill-rule="evenodd" clip-rule="evenodd" d="M750.192 114.842C749.006 108.592 745.679 103.266 741.063 100.238L195.359 -257.748C186.401 -263.621 175.106 -259.443 170.181 -248.433L-129.912 422.329C-132.112 427.24 -132.759 432.933 -131.733 438.338C-130.547 444.596 -127.218 449.917 -122.601 452.946L423.103 810.934C432.061 816.803 443.352 812.621 448.276 801.617L748.371 130.858C750.569 125.942 751.217 120.252 750.192 114.842ZM-133.841 438.959C-134.987 432.925 -134.263 426.573 -131.809 421.084L168.286 -249.679C173.785 -261.968 186.392 -266.631 196.391 -260.071L742.097 97.9107C747.25 101.291 750.967 107.235 752.29 114.218C753.437 120.256 752.716 126.609 750.257 132.098L450.162 802.857C444.665 815.147 432.058 819.814 422.056 813.253L-123.645 455.265C-128.8 451.887 -132.516 445.943 -133.841 438.959Z" fill="#DADADA"/>
<path fill-rule="evenodd" clip-rule="evenodd" d="M718.259 116.433C717.147 110.558 714.051 105.495 709.771 102.534L187.073 -259.107C178.508 -265.03 167.507 -261.284 162.545 -250.756L-140.253 391.957C-142.541 396.818 -143.239 402.478 -142.213 407.898C-141.098 413.77 -138 418.833 -133.72 421.799L388.973 783.444C397.54 789.366 408.539 785.616 413.501 775.081L716.301 132.372C718.59 127.512 719.286 121.849 718.259 116.433ZM-144.313 408.523C-145.462 402.456 -144.679 396.114 -142.116 390.668L160.68 -252.047C166.24 -263.842 178.564 -268.037 188.157 -261.403L710.856 100.236C715.654 103.553 719.118 109.23 720.368 115.808C721.518 121.879 720.735 128.219 718.171 133.665L415.376 776.382C409.822 788.174 397.492 792.373 387.899 785.739L-134.799 424.102C-139.594 420.78 -143.065 415.1 -144.313 408.523Z" fill="#DADADA"/>
<path fill-rule="evenodd" clip-rule="evenodd" d="M686.348 118.025C685.289 112.446 682.498 107.757 678.481 104.824L178.794 -260.463C174.841 -263.357 170.175 -264.183 165.667 -262.787C161.156 -261.389 157.339 -257.937 154.919 -253.07L-150.581 361.597C-152.97 366.401 -153.717 372.032 -152.688 377.46C-151.63 383.039 -148.839 387.728 -144.827 390.663L354.862 755.95C363.032 761.922 373.74 758.601 378.739 748.554L684.242 133.886C686.631 129.084 687.374 123.452 686.348 118.025ZM-154.792 378.082C-155.949 371.978 -155.108 365.654 -152.427 360.257L153.078 -254.415C155.799 -259.891 160.089 -263.769 165.163 -265.339C170.232 -266.91 175.474 -265.982 179.926 -262.731L679.611 102.56C684.124 105.857 687.263 111.129 688.454 117.4C689.611 123.503 688.769 129.838 686.082 135.233L380.581 749.905C374.967 761.198 362.923 764.933 353.737 758.222L-145.951 392.928C-150.461 389.626 -153.603 384.361 -154.792 378.082Z" fill="#DADADA"/>
<path fill-rule="evenodd" clip-rule="evenodd" d="M654.441 119.612C653.455 114.403 650.882 109.972 647.196 107.119L170.517 -261.825C162.737 -267.845 152.316 -264.957 147.285 -255.386L-160.921 331.241C-163.412 335.978 -164.215 341.582 -163.182 347.024C-162.195 352.227 -159.621 356.668 -155.935 359.519L320.745 728.464C328.524 734.487 338.942 731.6 343.977 722.022L652.18 135.399C654.672 130.66 655.475 125.051 654.441 119.612ZM-165.289 347.652C-166.451 341.515 -165.544 335.186 -162.733 329.838L145.471 -256.788C151.147 -267.588 162.907 -270.849 171.686 -264.056L648.369 104.891C652.525 108.108 655.431 113.113 656.544 118.988C657.709 125.13 656.801 131.455 653.994 136.803L345.787 723.435C340.107 734.23 328.348 737.493 319.567 730.698L-157.109 361.757C-161.269 358.535 -164.174 353.528 -165.289 347.652Z" fill="#DADADA"/>
<path fill-rule="evenodd" clip-rule="evenodd" d="M622.544 121.196C621.628 116.359 619.266 112.171 615.901 109.407L162.229 -263.19C158.653 -266.13 154.331 -267.178 150.068 -266.139C145.801 -265.101 142.099 -262.104 139.647 -257.697L-171.264 300.884C-173.827 305.487 -174.71 311.212 -173.691 316.594C-172.773 321.431 -170.417 325.617 -167.05 328.384L286.622 700.983C294.008 707.048 304.141 704.583 309.204 695.486L620.117 136.911C622.679 132.307 623.565 126.577 622.544 121.196ZM-175.793 317.22C-176.95 311.12 -175.946 304.634 -173.045 299.422L137.867 -259.16C140.65 -264.152 144.839 -267.549 149.672 -268.724C154.506 -269.899 159.399 -268.711 163.452 -265.383L617.122 107.217C620.937 110.349 623.608 115.092 624.648 120.569C625.806 126.667 624.802 133.156 621.899 138.375L310.986 696.951C305.25 707.258 293.771 710.049 285.404 703.175L-168.266 330.572C-172.081 327.442 -174.754 322.7 -175.793 317.22Z" fill="#DADADA"/>
<path fill-rule="evenodd" clip-rule="evenodd" d="M590.665 122.776C589.815 118.297 587.666 114.365 584.614 111.696L153.949 -264.553C150.558 -267.514 146.41 -268.674 142.265 -267.815C138.123 -266.958 134.483 -264.185 132.016 -260.012L-181.603 270.526C-184.283 275.059 -185.231 280.759 -184.206 286.17C-183.356 290.641 -181.208 294.576 -178.154 297.249L252.506 673.501C259.506 679.617 269.346 677.578 274.444 668.954L588.06 138.425C590.742 133.889 591.692 128.182 590.665 122.776ZM-186.31 286.793C-187.479 280.645 -186.396 274.161 -183.344 268.999L130.269 -261.534C133.078 -266.284 137.219 -269.437 141.932 -270.413C146.646 -271.389 151.365 -270.072 155.223 -266.702L585.885 109.549C589.357 112.582 591.804 117.06 592.77 122.152C593.935 128.302 592.86 134.788 589.807 139.946L276.187 670.483C270.398 680.285 259.2 682.606 251.239 675.651L-179.424 299.404C-182.897 296.36 -185.344 291.884 -186.31 286.793Z" fill="#DADADA"/>
<path fill-rule="evenodd" clip-rule="evenodd" d="M558.795 124.355C558.013 120.231 556.067 116.549 553.316 113.982L145.661 -265.921C139.051 -272.08 129.501 -270.465 124.368 -262.318L-191.945 240.169C-194.756 244.63 -195.777 250.308 -194.745 255.743C-193.961 259.866 -192.015 263.545 -189.265 266.118L218.393 646.024C225 652.182 234.55 650.565 239.678 642.419L556.001 139.932C558.81 135.471 559.826 129.795 558.795 124.355ZM-196.852 256.371C-198.031 250.158 -196.862 243.675 -193.655 238.576L122.662 -263.905C128.521 -273.212 139.432 -275.058 146.983 -268.021L554.635 111.884C557.777 114.813 560.005 119.019 560.896 123.731C562.075 129.944 560.91 136.427 557.702 141.526L241.383 644.008C235.523 653.314 224.614 655.157 217.064 648.127L-190.591 268.221C-193.734 265.288 -195.958 261.081 -196.852 256.371Z" fill="#DADADA"/>
<path fill-rule="evenodd" clip-rule="evenodd" d="M526.946 125.932C526.218 122.099 524.518 118.758 522.026 116.271L137.379 -267.289C131.157 -273.494 121.896 -272.298 116.731 -264.624L-202.292 209.818C-205.236 214.199 -206.331 219.85 -205.292 225.327C-204.563 229.16 -202.861 232.498 -200.369 234.983L184.276 618.549C190.499 624.759 199.758 623.561 204.923 615.882L523.949 141.443C526.894 137.064 527.984 131.407 526.946 125.932ZM-207.391 225.952C-208.583 219.672 -207.328 213.184 -203.947 208.159L115.073 -266.279C120.997 -275.083 131.622 -276.456 138.758 -269.338L523.405 114.223C526.265 117.076 528.219 120.906 529.051 125.306C530.244 131.59 528.991 138.076 525.617 143.1L206.587 617.545C200.666 626.348 190.04 627.72 182.904 620.602L-201.742 237.039C-204.604 234.187 -206.556 230.356 -207.391 225.952Z" fill="#DADADA"/>
<path fill-rule="evenodd" clip-rule="evenodd" d="M495.115 127.497C494.453 124.005 492.939 120.912 490.73 118.55L129.091 -268.666C123.256 -274.911 114.283 -274.136 109.089 -266.933L-212.64 179.458C-215.686 183.691 -216.892 189.468 -215.857 194.913C-215.195 198.402 -213.678 201.492 -211.47 203.854L150.167 591.077C156.001 597.319 164.972 596.543 170.166 589.337L491.897 142.945C494.942 138.717 496.144 132.943 495.115 127.497ZM-217.96 195.538C-219.15 189.261 -217.762 182.606 -214.25 177.736L107.478 -268.658C113.46 -276.96 123.801 -277.853 130.527 -270.654L492.163 116.561C494.708 119.283 496.455 122.849 497.218 126.872C498.408 133.146 497.022 139.803 493.506 144.673L171.779 591.067C165.797 599.366 155.456 600.264 148.733 593.066L-212.908 205.854C-215.448 203.126 -217.197 199.563 -217.96 195.538Z" fill="#DADADA"/>
<path fill-rule="evenodd" clip-rule="evenodd" d="M463.298 129.056C462.702 125.903 461.363 123.057 459.436 120.828L120.808 -270.043C115.355 -276.333 106.669 -275.974 101.446 -269.241L-222.985 149.106C-226.192 153.241 -227.485 158.999 -226.441 164.502C-225.843 167.659 -224.505 170.503 -222.575 172.734L116.054 563.604C121.507 569.895 130.191 569.537 135.41 562.8L459.846 144.452C463.054 140.317 464.343 134.563 463.298 129.056ZM-228.544 165.129C-229.753 158.757 -228.259 152.095 -224.546 147.311L99.8844 -271.037C105.934 -278.834 115.988 -279.248 122.296 -271.964L460.924 118.903C463.162 121.484 464.707 124.777 465.403 128.437C466.611 134.808 465.115 141.468 461.405 146.257L136.97 564.606C130.924 572.398 120.869 572.816 114.56 565.533L-224.07 174.663C-226.304 172.083 -227.851 168.783 -228.544 165.129Z" fill="#DADADA"/>
<path fill-rule="evenodd" clip-rule="evenodd" d="M431.51 130.622C430.973 127.79 429.809 125.189 428.139 123.108L112.519 -271.416C107.451 -277.752 99.0549 -277.808 93.7979 -271.539L-233.339 118.758C-236.716 122.79 -238.102 128.524 -237.044 134.1C-236.508 136.933 -235.344 139.533 -233.676 141.618L81.9468 536.141C87.0149 542.475 95.411 542.533 100.667 536.263L427.803 145.961C431.182 141.93 432.569 136.199 431.51 130.622ZM-239.147 134.729C-240.359 128.342 -238.707 121.509 -234.835 116.89L92.3014 -273.412C98.4122 -280.7 108.18 -280.636 114.075 -273.267L429.695 121.254C431.635 123.682 432.985 126.701 433.614 129.998C434.823 136.384 433.17 143.22 429.305 147.839L102.164 538.141C96.0538 545.43 86.2876 545.366 80.3906 537.994L-235.227 143.473C-237.168 141.045 -238.523 138.023 -239.147 134.729Z" fill="#DADADA"/>
<mask id="mask1_682_867" style="mask-type:luminance" maskUnits="userSpaceOnUse" x="-306" y="-352" width="764" height="939">
<path fill-rule="evenodd" clip-rule="evenodd" d="M-305.387 -159.688L274.838 -351.065L457.445 395.561L-122.78 586.939L-305.387 -159.688Z" fill="white"/>
</mask>
<g mask="url(#mask1_682_867)">
<path fill-rule="evenodd" clip-rule="evenodd" d="M399.736 132.167C399.257 129.651 398.255 127.303 396.833 125.374L104.222 -272.803C99.5389 -279.182 91.4263 -279.652 86.1423 -273.85L-243.701 88.4078C-247.215 92.2661 -248.738 98.1247 -247.681 103.697C-247.203 106.216 -246.203 108.567 -244.783 110.498L47.8286 508.675C52.5165 515.05 60.6244 515.522 65.9089 509.716L395.754 147.465C399.264 143.605 400.791 137.744 399.736 132.167ZM-249.784 104.325C-251.019 97.8124 -249.235 90.9646 -245.134 86.462L84.7093 -275.796C90.8839 -282.574 100.364 -282.029 105.842 -274.576L398.456 123.6C400.111 125.856 401.283 128.602 401.842 131.545C403.076 138.06 401.296 144.908 397.188 149.414L67.344 511.668C61.1691 518.453 51.6922 517.905 46.2154 510.451L-246.4 112.272C-248.056 110.022 -249.225 107.27 -249.784 104.325Z" fill="#DADADA"/>
</g>
</g>
</g>
<defs>
<clipPath id="clip0_682_867">
<rect width="1116" height="455" fill="white" transform="translate(0 -66)"/>
</clipPath>
</defs>
</svg>
