<svg width="51" height="50" viewBox="0 0 51 50" fill="none" xmlns="http://www.w3.org/2000/svg">
<rect x="0.666626" width="50" height="50" rx="25" fill="#7B3FC7"/>
<path d="M38.8663 16.5183C38.7485 16.2772 38.5689 16.0713 38.3457 15.9213C38.1225 15.7713 37.8635 15.6825 37.5949 15.664L36.2679 15.5426L36.825 14.967C36.9735 14.8154 37.0559 14.6116 37.0542 14.3998C37.0524 14.188 36.9667 13.9855 36.8157 13.8363C36.6648 13.6872 36.4607 13.6035 36.248 13.6034C36.0353 13.6034 35.8312 13.6871 35.6802 13.8362L35.1106 14.4243L34.9852 13.0655C34.9666 12.7981 34.8775 12.5404 34.7271 12.3182C34.5766 12.096 34.37 11.9172 34.1281 11.7998C33.8569 11.6752 33.5538 11.6368 33.26 11.6898C32.9661 11.7427 32.6957 11.8845 32.4856 12.0958L30.7461 13.8283C30.6623 13.9118 30.5979 14.0126 30.5576 14.1237C30.5173 14.2347 30.502 14.3532 30.5128 14.4708L30.8158 17.752C30.8418 18.0331 30.8056 18.3164 30.7099 18.582C30.6141 18.8477 30.461 19.0893 30.2615 19.2897L24.1864 25.3914C24.1115 25.4665 24.0522 25.5556 24.0119 25.6536C23.9716 25.7515 23.9511 25.8564 23.9515 25.9623C23.952 26.0681 23.9734 26.1729 24.0145 26.2705C24.0556 26.3681 24.1156 26.4568 24.1911 26.5313C24.2656 26.6052 24.3542 26.6636 24.4517 26.7031C24.5492 26.7425 24.6536 26.7623 24.7588 26.7611C24.865 26.7614 24.9702 26.7409 25.0684 26.7007C25.1667 26.6605 25.256 26.6014 25.3312 26.5267L31.4415 20.3899C31.643 20.1875 31.887 20.032 32.156 19.9346C32.425 19.8371 32.7122 19.8 32.9973 19.8261L36.1837 20.1177C36.2086 20.1199 36.2334 20.1211 36.2577 20.1211C36.3637 20.1211 36.4688 20.1003 36.5668 20.0598C36.6648 20.0194 36.7538 19.9601 36.8288 19.8854L38.5689 18.1532C38.7811 17.9441 38.9235 17.675 38.9767 17.3825C39.0299 17.09 38.9913 16.7882 38.8663 16.5183ZM35.9545 18.4812L32.476 18.163L32.156 14.6993L33.3993 13.461L33.6577 16.2587C33.6749 16.4458 33.7574 16.621 33.8908 16.7539C34.0242 16.8868 34.2001 16.9689 34.388 16.9861L37.1973 17.2434L35.9545 18.4812Z" fill="white"/>
<path d="M26.3323 21.6733C25.3465 21.3122 24.2663 21.2978 23.2711 21.6326C22.2759 21.9673 21.4257 22.6309 20.8617 23.5133C20.2976 24.3956 20.0537 25.4436 20.1705 26.483C20.2873 27.5225 20.7576 28.4909 21.5035 29.2274C22.2494 29.9638 23.2259 30.424 24.2707 30.5315C25.3156 30.639 26.3659 30.3874 27.2472 29.8183C28.1286 29.2493 28.7879 28.3971 29.1156 27.4034C29.4434 26.4096 29.4198 25.3342 29.0489 24.3556L26.1125 27.3048C25.7542 27.6613 25.2686 27.8617 24.7621 27.8621C24.2556 27.8625 23.7696 27.6629 23.4108 27.3071C23.0519 26.9512 22.8494 26.4682 22.8476 25.9638C22.8459 25.4595 23.0452 24.9751 23.4016 24.6168L26.3323 21.6733Z" fill="white"/>
<path d="M36.0829 21.2134L32.8963 20.9218C32.8708 20.9194 32.8452 20.9183 32.8197 20.9183C32.5969 20.9189 32.3835 21.0075 32.2262 21.1647L31.5371 21.8568C32.5484 23.5107 32.9168 25.4759 32.5728 27.3817C32.2288 29.2874 31.1962 31.0019 29.6699 32.2017C28.1435 33.4014 26.229 34.0034 24.2875 33.894C22.346 33.7847 20.5119 32.9715 19.1312 31.6081C17.7504 30.2446 16.9186 28.4251 16.7926 26.4929C16.6667 24.5606 17.2553 22.6493 18.4474 21.1195C19.6395 19.5898 21.3527 18.5474 23.2637 18.189C25.1747 17.8306 27.1513 18.1811 28.8206 19.1743L29.4768 18.5151C29.5628 18.4289 29.6288 18.3248 29.67 18.2104C29.7113 18.096 29.7268 17.9739 29.7155 17.8529L29.4126 14.5717C29.4096 14.5385 29.4158 14.5062 29.4143 14.4731C26.7516 13.4041 23.7994 13.2857 21.059 14.138C18.3185 14.9903 15.9588 16.7607 14.3805 19.1487C12.8021 21.5368 12.1025 24.3951 12.4004 27.2385C12.6982 30.0818 13.9752 32.7349 16.0145 34.7472C18.0538 36.7594 20.7296 38.0069 23.5877 38.2777C26.4458 38.5485 29.3099 37.826 31.6938 36.2328C34.0776 34.6396 35.8342 32.274 36.6652 29.5376C37.4963 26.8012 37.3506 23.8627 36.2529 21.2212C36.1971 21.221 36.1404 21.2186 36.0829 21.2134Z" fill="white"/>
</svg>
