<svg width="51" height="50" viewBox="0 0 51 50" fill="none" xmlns="http://www.w3.org/2000/svg">
<rect x="0.333252" width="50" height="50" rx="25" fill="#7B3FC7"/>
<path d="M20.8207 33.1125V20.4125C20.8207 19.9125 20.9707 19.425 21.2457 19.0125L24.6582 13.9375C25.1957 13.125 26.5332 12.55 27.6707 12.975C28.8957 13.3875 29.7082 14.7625 29.4457 15.9875L28.7957 20.075C28.7457 20.45 28.8457 20.7875 29.0582 21.05C29.2707 21.2875 29.5832 21.4375 29.9207 21.4375H35.0582C36.0457 21.4375 36.8957 21.8375 37.3957 22.5375C37.8707 23.2125 37.9582 24.0875 37.6457 24.975L34.5707 34.3375C34.1832 35.8875 32.4957 37.15 30.8207 37.15H25.9457C25.1082 37.15 23.9332 36.8625 23.3957 36.325L21.7957 35.0875C21.1832 34.625 20.8207 33.8875 20.8207 33.1125Z" fill="white"/>
<path d="M16.8458 17.975H15.5583C13.6208 17.975 12.8333 18.725 12.8333 20.575V33.15C12.8333 35 13.6208 35.75 15.5583 35.75H16.8458C18.7833 35.75 19.5708 35 19.5708 33.15V20.575C19.5708 18.725 18.7833 17.975 16.8458 17.975Z" fill="white"/>
</svg>
