<svg width="50" height="50" viewBox="0 0 50 50" fill="none" xmlns="http://www.w3.org/2000/svg">
<rect x="-0.00012207" width="50" height="50" rx="25" fill="#7B3FC7"/>
<path d="M24.9249 12.7625L21.9124 19.775H18.8999C18.3999 19.775 17.9124 19.8125 17.4374 19.9125L18.6874 16.9125L18.7374 16.8L18.8124 16.6C18.8499 16.5125 18.8749 16.4375 18.9124 16.375C20.3624 13.0125 21.9874 11.9625 24.9249 12.7625Z" fill="white"/>
<path d="M33.4124 20.1125L33.3874 20.1C32.6374 19.8875 31.8749 19.775 31.0999 19.775H23.2749L26.0874 13.2375L26.1249 13.15C26.2999 13.2125 26.4874 13.3 26.6749 13.3625L29.4374 14.525C30.9749 15.1625 32.0499 15.825 32.7124 16.625C32.8249 16.775 32.9249 16.9125 33.0249 17.075C33.1374 17.25 33.2249 17.425 33.2749 17.6125C33.3249 17.725 33.3624 17.825 33.3874 17.9375C33.5749 18.575 33.5874 19.3 33.4124 20.1125Z" fill="white"/>
<path d="M25.6499 32.075H25.9624C26.3374 32.075 26.6499 31.7375 26.6499 31.325C26.6499 30.8 26.4999 30.725 26.1749 30.6L25.6499 30.4125V32.075Z" fill="white"/>
<path d="M32.8624 21.9C32.2999 21.7375 31.7124 21.65 31.0999 21.65H18.8999C18.0499 21.65 17.2499 21.8125 16.4999 22.1375C14.3249 23.075 12.7999 25.2375 12.7999 27.75V30.1875C12.7999 30.4875 12.8249 30.775 12.8624 31.075C13.1374 35.05 15.2624 37.175 19.2374 37.4375C19.5249 37.475 19.8124 37.5 20.1249 37.5H29.8749C34.4999 37.5 36.9374 35.3 37.1749 30.925C37.1874 30.6875 37.1999 30.4375 37.1999 30.1875V27.75C37.1999 24.9875 35.3624 22.6625 32.8624 21.9ZM26.5999 29.375C27.1749 29.575 27.9499 30 27.9499 31.325C27.9499 32.4625 27.0624 33.375 25.9624 33.375H25.6499V33.65C25.6499 34.0125 25.3624 34.3 24.9999 34.3C24.6374 34.3 24.3499 34.0125 24.3499 33.65V33.375H24.2374C23.0374 33.375 22.0499 32.3625 22.0499 31.1125C22.0499 30.75 22.3374 30.4625 22.6999 30.4625C23.0624 30.4625 23.3499 30.75 23.3499 31.1125C23.3499 31.6375 23.7499 32.075 24.2374 32.075H24.3499V29.9625L23.3999 29.625C22.8249 29.425 22.0499 29 22.0499 27.675C22.0499 26.5375 22.9374 25.625 24.0374 25.625H24.3499V25.35C24.3499 24.9875 24.6374 24.7 24.9999 24.7C25.3624 24.7 25.6499 24.9875 25.6499 25.35V25.625H25.7624C26.9624 25.625 27.9499 26.6375 27.9499 27.8875C27.9499 28.25 27.6624 28.5375 27.2999 28.5375C26.9374 28.5375 26.6499 28.25 26.6499 27.8875C26.6499 27.3625 26.2499 26.925 25.7624 26.925H25.6499V29.0375L26.5999 29.375Z" fill="white"/>
<path d="M23.35 27.675C23.35 28.2 23.5 28.275 23.825 28.4L24.35 28.5875V26.925H24.0375C23.65 26.925 23.35 27.2625 23.35 27.675Z" fill="white"/>
</svg>
