<svg width="22" height="19" viewBox="0 0 22 19" fill="none" xmlns="http://www.w3.org/2000/svg">
<path d="M20.75 0.375L21.625 2.1875C20 2.9375 18.7292 3.85417 17.8125 4.9375C16.9375 5.97917 16.5 7.20833 16.5 8.625C16.5 9.25 16.6042 9.77083 16.8125 10.1875C17.0625 10.6042 17.3542 10.9792 17.6875 11.3125C18.0208 11.6042 18.3542 11.9167 18.6875 12.25C19.0208 12.5417 19.2917 12.9167 19.5 13.375C19.75 13.7917 19.875 14.3333 19.875 15C19.875 15.9167 19.5208 16.7083 18.8125 17.375C18.1458 18.0417 17.2708 18.375 16.1875 18.375C15.4792 18.375 14.7917 18.1667 14.125 17.75C13.4583 17.3333 12.9167 16.7083 12.5 15.875C12.125 15.0417 11.9375 13.9792 11.9375 12.6875C11.9375 11.0208 12.3125 9.375 13.0625 7.75C13.8125 6.08333 14.8542 4.60417 16.1875 3.3125C17.5208 2.02083 19.0417 1.04167 20.75 0.375ZM9.25 0.375L10.125 2.1875C8.5 2.9375 7.22917 3.85417 6.3125 4.9375C5.4375 5.97917 5 7.20833 5 8.625C5 9.25 5.10417 9.77083 5.3125 10.1875C5.5625 10.6042 5.85417 10.9792 6.1875 11.3125C6.52083 11.6042 6.85417 11.9167 7.1875 12.25C7.52083 12.5417 7.79167 12.9167 8 13.375C8.25 13.7917 8.375 14.3333 8.375 15C8.375 15.9167 8.02083 16.7083 7.3125 17.375C6.64583 18.0417 5.77083 18.375 4.6875 18.375C3.97917 18.375 3.29167 18.1667 2.625 17.75C1.95833 17.3333 1.41667 16.7083 1 15.875C0.625 15.0417 0.4375 13.9792 0.4375 12.6875C0.4375 11.0208 0.8125 9.375 1.5625 7.75C2.3125 6.08333 3.35417 4.60417 4.6875 3.3125C6.02083 2.02083 7.54167 1.04167 9.25 0.375Z" fill="white"/>
</svg>
