<svg width="20" height="19" viewBox="0 0 20 19" fill="none" xmlns="http://www.w3.org/2000/svg">
<path d="M9.53107 0.767254C9.69215 0.331944 10.3078 0.331944 10.4689 0.767253L12.6211 6.58347C12.6718 6.72033 12.7797 6.82824 12.9165 6.87888L18.7327 9.03107C19.1681 9.19215 19.1681 9.80785 18.7327 9.96893L12.9165 12.1211C12.7797 12.1718 12.6718 12.2797 12.6211 12.4165L10.4689 18.2327C10.3078 18.6681 9.69215 18.6681 9.53107 18.2327L7.37888 12.4165C7.32824 12.2797 7.22033 12.1718 7.08347 12.1211L1.26725 9.96893C0.831944 9.80785 0.831944 9.19215 1.26725 9.03107L7.08347 6.87888C7.22033 6.82824 7.32824 6.72033 7.37888 6.58347L9.53107 0.767254Z" fill="#7B3FC7"/>
</svg>
