<svg width="20" height="20" viewBox="0 0 20 20" fill="none" xmlns="http://www.w3.org/2000/svg">
<path d="M7.62492 2.08331C5.55075 2.08331 3.8645 3.76956 3.8645 5.84373C3.8645 7.87831 5.45575 9.52498 7.52992 9.59623C7.59325 9.58831 7.65659 9.58831 7.70409 9.59623C7.71992 9.59623 7.72784 9.59623 7.74367 9.59623C7.75159 9.59623 7.75159 9.59623 7.7595 9.59623C9.78617 9.52498 11.3774 7.87831 11.3853 5.84373C11.3853 3.76956 9.69909 2.08331 7.62492 2.08331Z" fill="#1C1636"/>
<path d="M11.6466 11.7021C9.43789 10.2296 5.8358 10.2296 3.61122 11.7021C2.6058 12.375 2.05164 13.2855 2.05164 14.2592C2.05164 15.233 2.6058 16.1355 3.6033 16.8005C4.71164 17.5446 6.1683 17.9167 7.62497 17.9167C9.08164 17.9167 10.5383 17.5446 11.6466 16.8005C12.6441 16.1275 13.1983 15.225 13.1983 14.2434C13.1904 13.2696 12.6441 12.3671 11.6466 11.7021Z" fill="#1C1636"/>
<path d="M16.3254 6.31074C16.4521 7.84657 15.3596 9.19241 13.8475 9.37449C13.8396 9.37449 13.8396 9.37449 13.8317 9.37449H13.8079C13.7604 9.37449 13.7129 9.37449 13.6733 9.39032C12.9054 9.42991 12.2008 9.18449 11.6704 8.73324C12.4858 8.00491 12.9529 6.91241 12.8579 5.72491C12.8025 5.08366 12.5808 4.49782 12.2483 3.99907C12.5492 3.84866 12.8975 3.75366 13.2537 3.72199C14.8054 3.58741 16.1908 4.74324 16.3254 6.31074Z" fill="#1C1636"/>
<path d="M17.9087 13.6337C17.8453 14.4017 17.3545 15.0667 16.5312 15.5179C15.7395 15.9533 14.742 16.1592 13.7524 16.1354C14.3224 15.6208 14.6549 14.9796 14.7182 14.2987C14.7974 13.3171 14.3303 12.375 13.3962 11.6229C12.8657 11.2033 12.2482 10.8708 11.5753 10.6254C13.3249 10.1187 15.5257 10.4592 16.8795 11.5517C17.6078 12.1375 17.9799 12.8737 17.9087 13.6337Z" fill="#1C1636"/>
</svg>
