<svg width="24" height="24" viewBox="0 0 24 24" fill="none" xmlns="http://www.w3.org/2000/svg">
<path d="M11.5002 13.3398C6.76573 13.3398 2.91016 16.515 2.91016 20.4273C2.91016 20.6919 3.11806 20.8998 3.38265 20.8998H19.6177C19.8823 20.8998 20.0902 20.6919 20.0902 20.4273C20.0902 16.515 16.2346 13.3398 11.5002 13.3398Z" fill="#1C1636"/>
<path d="M15.9604 9.8907L15.0532 8.98351C15.5257 8.27476 15.7997 7.42427 15.7997 6.50762C15.7997 4.01284 13.7774 2 11.2921 2C8.80676 2 6.77502 4.02229 6.77502 6.50762C6.77502 8.99296 8.79731 11.0152 11.2826 11.0152C12.1993 11.0152 13.0498 10.7412 13.7585 10.2687L14.6657 11.1759C14.8453 11.3554 15.0815 11.4405 15.3083 11.4405C15.5446 11.4405 15.7808 11.3554 15.9509 11.1759C16.31 10.8262 16.31 10.2498 15.9604 9.8907Z" fill="#1C1636"/>
</svg>
