<svg width="20" height="20" viewBox="0 0 20 20" fill="none" xmlns="http://www.w3.org/2000/svg">
<path d="M17.125 8.41665H2.87504C2.43962 8.41665 2.08337 8.7729 2.08337 9.20832V13.3171C2.08337 13.4754 2.09129 13.6337 2.10712 13.7921C2.26546 16.2304 3.76962 17.7346 6.20796 17.8929C6.36629 17.9087 6.52462 17.9166 6.68296 17.9166H13.3171C13.4755 17.9166 13.6338 17.9087 13.7921 17.8929C16.2305 17.7346 17.7346 16.2304 17.893 13.7921C17.9088 13.6337 17.9167 13.4754 17.9167 13.3171V9.20832C17.9167 8.7729 17.5605 8.41665 17.125 8.41665ZM6.83337 13.2854C7.10254 13.6812 7.46671 14.0058 7.88629 14.2196C8.18712 14.3621 8.30587 14.7183 8.15546 15.0191C8.05254 15.225 7.83879 15.3437 7.62504 15.3437C7.53796 15.3437 7.44296 15.32 7.36379 15.2804C6.74629 14.9796 6.22379 14.5125 5.85171 13.9504C5.53504 13.4754 5.53504 12.8579 5.85171 12.3829C6.22379 11.8208 6.74629 11.3537 7.36379 11.0529C7.65671 10.9025 8.01296 11.0212 8.15546 11.3141C8.30587 11.615 8.18712 11.9712 7.88629 12.1137C7.46671 12.3275 7.10254 12.6521 6.83337 13.0479C6.78587 13.1191 6.78587 13.2141 6.83337 13.2854ZM14.3146 13.9504C13.9346 14.5125 13.4121 14.9796 12.8025 15.2804C12.7155 15.32 12.6284 15.3437 12.5413 15.3437C12.3196 15.3437 12.1138 15.225 12.0109 15.0191C11.8605 14.7183 11.9792 14.3621 12.2721 14.2196C12.6996 14.0058 13.0638 13.6812 13.325 13.2854C13.3805 13.2141 13.3805 13.1191 13.325 13.0479C13.0638 12.6521 12.6996 12.3275 12.2721 12.1137C11.9792 11.9712 11.8605 11.615 12.0109 11.3141C12.1534 11.0212 12.5096 10.9025 12.8025 11.0529C13.4121 11.3537 13.9346 11.8208 14.3146 12.3829C14.6313 12.8579 14.6313 13.4754 14.3146 13.9504Z" fill="#1C1636"/>
<path d="M17.9167 6.68287V6.83328C17.9167 7.2687 17.5605 7.62495 17.125 7.62495L2.87504 7.63287C2.43962 7.63287 2.08337 7.27662 2.08337 6.8412V6.68287C2.08337 6.52453 2.09129 6.3662 2.10712 6.20787C2.26546 3.76953 3.76962 2.26537 6.20796 2.10703C6.36629 2.0912 6.52462 2.08328 6.68296 2.08328H13.3171C13.4755 2.08328 13.6338 2.0912 13.7921 2.10703C16.2305 2.26537 17.7346 3.76953 17.893 6.20787C17.9088 6.3662 17.9167 6.52453 17.9167 6.68287Z" fill="#1C1636"/>
</svg>
