<svg width="24" height="24" viewBox="0 0 24 24" fill="none" xmlns="http://www.w3.org/2000/svg">
<path fill-rule="evenodd" clip-rule="evenodd" d="M19.2819 9.99002C17.6537 9.99002 16.988 8.83859 17.7976 7.4263C18.2654 6.60771 17.9865 5.56423 17.1679 5.09646L15.6117 4.20591C14.901 3.78312 13.9835 4.03499 13.5607 4.74564L13.4618 4.91655C12.6522 6.32885 11.3208 6.32885 10.5022 4.91655L10.4033 4.74564C9.9985 4.03499 9.08096 3.78312 8.37031 4.20591L6.81409 5.09646C5.9955 5.56423 5.71664 6.6167 6.18441 7.43529C7.003 8.83859 6.33733 9.99002 4.70915 9.99002C3.77361 9.99002 3 10.7546 3 11.6992V13.2824C3 14.2179 3.76462 14.9915 4.70915 14.9915C6.33733 14.9915 7.003 16.1429 6.18441 17.5552C5.71664 18.3738 5.9955 19.4173 6.81409 19.8851L8.37031 20.7756C9.08096 21.1984 9.9985 20.9465 10.4213 20.2359L10.5202 20.065C11.3298 18.6527 12.6612 18.6527 13.4798 20.065L13.5787 20.2359C14.0015 20.9465 14.919 21.1984 15.6297 20.7756L17.1859 19.8851C18.0045 19.4173 18.2834 18.3648 17.8156 17.5552C16.997 16.1429 17.6627 14.9915 19.2909 14.9915C20.2264 14.9915 21 14.2269 21 13.2824V11.6992C20.991 10.7636 20.2264 9.99002 19.2819 9.99002ZM11.5134 9.73451C11.5134 9.36886 11.8098 9.07245 12.1754 9.07245C12.5411 9.07245 12.8375 9.36886 12.8375 9.73451V13.0161C12.8375 13.3817 12.5411 13.6781 12.1754 13.6781C11.8098 13.6781 11.5134 13.3817 11.5134 13.0161V9.73451ZM11.4555 15.5492C11.4555 15.1517 11.7777 14.8295 12.1752 14.8295C12.5726 14.8295 12.8948 15.1517 12.8948 15.5492C12.8948 15.9466 12.5726 16.2688 12.1752 16.2688C11.7777 16.2688 11.4555 15.9466 11.4555 15.5492Z" fill="#1C1636"/>
</svg>
