<svg width="24" height="24" viewBox="0 0 24 24" fill="none" xmlns="http://www.w3.org/2000/svg">
<path fill-rule="evenodd" clip-rule="evenodd" d="M9.76118 4.44678C6.87179 4.44678 4.47104 5.2726 3.99107 6.35892C3.96508 6.41775 3.98381 6.4858 4.03433 6.52561C4.31366 6.74575 4.74175 6.96085 5.3051 7.14864C6.37142 7.50408 7.84623 7.73669 9.49785 7.75914C9.56053 7.75999 9.62052 7.73382 9.66364 7.68831C10.7406 6.55186 12.1822 5.76451 13.8012 5.51365C14.0213 5.47954 14.0778 5.19179 13.8701 5.1111C12.8128 4.70027 11.362 4.44678 9.76118 4.44678ZM8.67713 16.5176C8.74942 16.5216 8.81533 16.5602 8.85494 16.6208C9.50884 17.6214 10.4037 18.4502 11.4572 19.0249C11.6522 19.1313 11.6109 19.437 11.3902 19.4621C10.8731 19.5211 10.3265 19.5527 9.76126 19.5527C6.52628 19.5527 3.90381 18.5176 3.90381 17.2406C3.90381 16.7307 3.90381 16.2424 3.90404 15.7748C3.90412 15.6024 4.09367 15.4935 4.24876 15.5689C4.4949 15.6886 4.76786 15.7974 5.06137 15.8953C6.03441 16.2196 7.2878 16.4411 8.67713 16.5176ZM7.47981 12.4045C7.59496 12.4186 7.68077 12.5178 7.68027 12.6338C7.68022 12.6446 7.68019 12.6554 7.68019 12.6662C7.68019 13.6245 7.86639 14.5392 8.20459 15.3763C8.26822 15.5338 8.14675 15.7082 7.97769 15.6917C6.94624 15.5911 6.03101 15.4061 5.3051 15.1641C4.74175 14.9763 4.31366 14.7612 4.03433 14.5411C4.01367 14.5248 3.9941 14.5087 3.97557 14.4928C3.9297 14.4536 3.9057 14.3952 3.90583 14.3348C3.90786 13.4502 3.91193 12.6517 3.92008 11.9313C3.91948 11.8799 3.91891 11.8282 3.91835 11.7761C3.91651 11.603 4.10628 11.4924 4.26213 11.5676C4.50477 11.6848 4.77317 11.7915 5.06137 11.8875C5.74562 12.1156 6.56851 12.2928 7.47981 12.4045ZM8.58002 8.49653C8.75556 8.50709 8.85531 8.70724 8.76262 8.85669C8.28049 9.63413 7.94151 10.5097 7.78254 11.4465C7.7624 11.5651 7.6542 11.6497 7.5348 11.6347C6.68376 11.5283 5.92533 11.3631 5.3051 11.1564C4.74175 10.9686 4.31366 10.7535 4.03433 10.5333C4.01469 10.5178 3.99603 10.5026 3.97832 10.4875C3.93259 10.4485 3.90842 10.3906 3.90817 10.3305C3.90487 9.54948 3.90403 8.69473 3.90381 7.75959C3.90377 7.58703 4.09344 7.4779 4.24862 7.55337C4.4948 7.6731 4.76781 7.78195 5.06137 7.8798C6.01168 8.19657 7.22941 8.41524 8.58002 8.49653Z" fill="#1C1636"/>
<path fill-rule="evenodd" clip-rule="evenodd" d="M14.8718 18.6984C18.2031 18.6984 20.9037 15.9978 20.9037 12.6664C20.9037 9.33511 18.2031 6.63452 14.8718 6.63452C11.5404 6.63452 8.83984 9.33511 8.83984 12.6664C8.83984 15.9978 11.5404 18.6984 14.8718 18.6984ZM15.1156 8.7874C15.0306 8.63664 14.8135 8.63664 14.7285 8.7874L13.6158 10.7615C13.5841 10.8178 13.5295 10.8574 13.4663 10.8702L11.2449 11.3184C11.0753 11.3526 11.0082 11.5591 11.1253 11.6865L12.659 13.3548C12.7027 13.4023 12.7235 13.4665 12.7161 13.5306L12.4559 15.7818C12.4361 15.9537 12.6117 16.0813 12.7691 16.0093L14.8296 15.0662C14.8883 15.0393 14.9558 15.0393 15.0145 15.0662L17.0751 16.0093C17.2324 16.0813 17.4081 15.9537 17.3882 15.7818L17.128 13.5306C17.1206 13.4665 17.1415 13.4023 17.1852 13.3548L18.7188 11.6865C18.8359 11.5591 18.7689 11.3526 18.5992 11.3184L16.3779 10.8702C16.3146 10.8574 16.26 10.8178 16.2283 10.7615L15.1156 8.7874Z" fill="#1C1636"/>
</svg>
