<svg width="24" height="24" viewBox="0 0 24 24" fill="none" xmlns="http://www.w3.org/2000/svg">
<path fill-rule="evenodd" clip-rule="evenodd" d="M9.8227 4C6.95097 4 4.56479 4.82062 4.08702 5.9002C4.06107 5.95884 4.07973 6.0267 4.1301 6.06639C4.40778 6.28523 4.83334 6.49906 5.39334 6.68573C6.45329 7.03905 7.91926 7.27028 9.56097 7.29262C9.62328 7.29347 9.68292 7.26745 9.72579 7.22222C10.7963 6.09255 12.2294 5.3099 13.8388 5.06056C14.0576 5.02665 14.1137 4.74061 13.9073 4.6604C12.8563 4.25199 11.414 4 9.8227 4ZM8.74484 15.9992C8.8167 16.0031 8.88222 16.0415 8.92159 16.1018C9.57164 17.0965 10.4613 17.9205 11.5086 18.4918C11.7024 18.5976 11.6613 18.9015 11.442 18.9265C10.9279 18.9851 10.3847 19.0166 9.82278 19.0166C6.60695 19.0166 4.00001 17.9875 4.00001 16.7181C4.00001 16.2111 4.00001 15.7256 4.00023 15.2607C4.00031 15.0892 4.18876 14.981 4.34293 15.056C4.5877 15.175 4.85916 15.2833 5.15106 15.3806C6.1182 15.703 7.36396 15.9231 8.74484 15.9992ZM7.55474 11.9104C7.66921 11.9244 7.75452 12.023 7.754 12.1383C7.75396 12.1491 7.75393 12.16 7.75393 12.1708C7.75393 13.1233 7.939 14.0326 8.27513 14.8646C8.33838 15.0212 8.21763 15.1945 8.04957 15.1781C7.02445 15.0782 6.11484 14.8942 5.39334 14.6537C4.83334 14.4671 4.40778 14.2532 4.1301 14.0344C4.10941 14.0181 4.08982 14.002 4.07128 13.9861C4.02572 13.9471 4.00188 13.8891 4.00201 13.8291C4.00403 12.9498 4.00807 12.1562 4.01617 11.4402C4.01558 11.389 4.01501 11.3375 4.01446 11.2855C4.01263 11.1135 4.20129 11.0035 4.35622 11.0783C4.59751 11.1949 4.86443 11.3009 5.15106 11.3965C5.83115 11.6232 6.64901 11.7993 7.55474 11.9104ZM8.64854 8.02563C8.82305 8.03613 8.9222 8.2351 8.83006 8.38367C8.35077 9.15647 8.01379 10.0268 7.85572 10.958C7.8357 11.0759 7.72814 11.16 7.60944 11.1451C6.7636 11.0393 6.0098 10.8751 5.39334 10.6696C4.83334 10.483 4.40778 10.2691 4.1301 10.0503C4.11042 10.0348 4.09174 10.0195 4.07402 10.0044C4.02859 9.96561 4.00459 9.90806 4.00433 9.84836C4.00106 9.07203 4.00022 8.22242 4 7.29291C3.99996 7.12136 4.18853 7.01287 4.3428 7.08792C4.5876 7.207 4.85911 7.31525 5.15106 7.41257C6.09567 7.72744 7.30606 7.9448 8.64854 8.02563Z" fill="#1C1636"/>
<path fill-rule="evenodd" clip-rule="evenodd" d="M15.0026 18.1847C18.3148 18.1847 20.9999 15.4997 20.9999 12.1875C20.9999 8.87525 18.3148 6.19019 15.0026 6.19019C11.6904 6.19019 9.00537 8.87525 9.00537 12.1875C9.00537 15.4997 11.6904 18.1847 15.0026 18.1847ZM18.0386 11.5615C18.1782 11.7067 18.0754 11.9484 17.874 11.9484H16.4238C16.2976 11.9484 16.1953 12.0506 16.1953 12.1768V15.5574C16.1953 15.6835 16.0931 15.7858 15.9669 15.7858H14.0883C13.9622 15.7858 13.8599 15.6835 13.8599 15.5574V12.1768C13.8599 12.0506 13.7577 11.9484 13.6315 11.9484H12.1835C11.9821 11.9484 11.8792 11.7067 12.0189 11.5615L14.8641 8.60467C14.954 8.51128 15.1034 8.51128 15.1933 8.60467L18.0386 11.5615Z" fill="#1C1636"/>
</svg>
