<svg width="24" height="24" viewBox="0 0 24 24" fill="none" xmlns="http://www.w3.org/2000/svg">
<path d="M7.13415 14.0389H5.29294C5.25447 14.0389 5.21638 14.0466 5.18083 14.0615C5.14529 14.0764 5.113 14.0983 5.08579 14.1259C5.05859 14.1534 5.03701 14.1862 5.02229 14.2222C5.00757 14.2582 5 14.2968 5 14.3358V20.7031C5 20.7818 5.03086 20.8573 5.0858 20.913C5.14074 20.9687 5.21525 21 5.29294 21H7.13415C7.21801 21 7.30106 20.9833 7.37855 20.9507C7.45603 20.9182 7.52644 20.8706 7.58575 20.8105C7.64505 20.7504 7.6921 20.6791 7.7242 20.6006C7.75629 20.522 7.77282 20.4379 7.77282 20.3529V14.6859C7.77281 14.6009 7.75628 14.5168 7.72418 14.4383C7.69208 14.3598 7.64503 14.2885 7.58573 14.2284C7.52642 14.1683 7.45602 14.1207 7.37853 14.0882C7.30105 14.0556 7.21801 14.0389 7.13415 14.0389Z" fill="#1C1636"/>
<path d="M18.7078 14.7864C18.6104 14.6362 18.4777 14.5129 18.3216 14.4277C18.1656 14.3425 17.991 14.298 17.8137 14.2982H17.0921C16.7826 14.2976 16.4798 14.3904 16.2225 14.5648C15.9652 14.7392 15.7651 14.9873 15.6475 15.2775C15.5777 15.4463 15.4806 15.6021 15.36 15.7384C15.1551 16.0572 14.8778 16.3217 14.5513 16.5098C14.2248 16.6978 13.8587 16.8039 13.4835 16.8192H11.3464C11.2475 16.8167 11.1534 16.7752 11.0843 16.7035C11.0153 16.6317 10.9766 16.5355 10.9766 16.4352C10.9766 16.335 11.0153 16.2387 11.0843 16.167C11.1534 16.0952 11.2475 16.0537 11.3464 16.0513H13.4734C13.7465 16.0444 14.0118 15.9586 14.2383 15.804V15.7887C14.2391 15.5933 14.2017 15.3996 14.1284 15.2188C14.0551 15.038 13.9473 14.8737 13.8111 14.7352C13.675 14.5968 13.5133 14.4869 13.3351 14.4119C13.157 14.3369 12.966 14.2983 12.7732 14.2982H11.2048C10.9183 14.2974 10.6345 14.3541 10.3696 14.4649C10.1048 14.5758 9.86424 14.7386 9.66177 14.944L9.62148 14.9848C9.32475 15.2851 8.94372 15.4851 8.53052 15.5575V19.7995H14.2499C15.098 19.8 15.9275 19.5483 16.6357 19.0756C17.3439 18.6029 17.8996 17.93 18.2339 17.1403L18.7973 15.8115C18.8676 15.6465 18.8962 15.4664 18.8805 15.2874C18.8649 15.1085 18.8055 14.9363 18.7078 14.7864Z" fill="#1C1636"/>
<path d="M12.3739 6.81241C13.7028 6.81241 14.7801 5.73511 14.7801 4.4062C14.7801 3.07729 13.7028 2 12.3739 2C11.0449 2 9.96765 3.07729 9.96765 4.4062C9.96765 5.73511 11.0449 6.81241 12.3739 6.81241Z" fill="#1C1636"/>
<path d="M12.3737 8.01562C9.96273 8.01562 7.99927 9.63259 7.99927 11.6249C7.99927 11.7597 8.10514 11.8656 8.23989 11.8656H16.5076C16.6424 11.8656 16.7482 11.7597 16.7482 11.6249C16.7482 9.63259 14.7848 8.01562 12.3737 8.01562Z" fill="#1C1636"/>
</svg>
