<svg width="20" height="20" viewBox="0 0 20 20" fill="none" xmlns="http://www.w3.org/2000/svg">
<path d="M13.3171 2.08328H6.68296C3.80129 2.08328 2.08337 3.8012 2.08337 6.68287V13.3091C2.08337 16.1987 3.80129 17.9166 6.68296 17.9166H13.3092C16.1909 17.9166 17.9088 16.1987 17.9088 13.317V6.68287C17.9167 3.8012 16.1988 2.08328 13.3171 2.08328ZM14.2355 7.66453L12.383 13.6337C11.9396 15.0508 9.95254 15.0745 9.48546 13.6654L8.93129 12.0266C8.78087 11.5754 8.42462 11.2112 7.97337 11.0687L6.32671 10.5145C4.93337 10.0475 4.94921 8.04453 6.36629 7.61703L12.3355 5.75662C13.5071 5.40037 14.6075 6.50078 14.2355 7.66453Z" fill="#1C1636"/>
</svg>
