<svg width="24" height="24" viewBox="0 0 24 24" fill="none" xmlns="http://www.w3.org/2000/svg">
<path d="M11.7914 14.1429C7.49714 14.1429 4 17.0229 4 20.5715C4 20.8115 4.18857 21.0001 4.42857 21.0001H19.1543C19.3943 21.0001 19.5829 20.8115 19.5829 20.5715C19.5829 17.0229 16.0857 14.1429 11.7914 14.1429Z" fill="#1C1636"/>
<path d="M14.9716 4.42286C14.2001 3.54857 13.0516 3 11.7916 3C10.5916 3 9.49443 3.48857 8.71443 4.29429C7.96872 5.06571 7.50586 6.12857 7.50586 7.28571C7.50586 8.09143 7.72872 8.84571 8.13157 9.48857C8.34586 9.85714 8.62015 10.1914 8.94586 10.4657C9.69157 11.1514 10.6859 11.5714 11.7916 11.5714C13.3601 11.5714 14.7144 10.7314 15.4601 9.48857C15.683 9.12 15.8544 8.70857 15.9487 8.28C16.0344 7.96286 16.0773 7.62857 16.0773 7.28571C16.0773 6.18857 15.6573 5.18571 14.9716 4.42286ZM13.3944 8.07429H12.5973V8.90571C12.5973 9.35143 12.2373 9.71143 11.7916 9.71143C11.3459 9.71143 10.9859 9.35143 10.9859 8.90571V8.07429H10.1887C9.743 8.07429 9.383 7.71429 9.383 7.26857C9.383 6.82286 9.743 6.46286 10.1887 6.46286H10.9859V5.7C10.9859 5.25429 11.3459 4.89429 11.7916 4.89429C12.2373 4.89429 12.5973 5.25429 12.5973 5.7V6.46286H13.3944C13.8401 6.46286 14.2001 6.82286 14.2001 7.26857C14.2001 7.71429 13.8401 8.07429 13.3944 8.07429Z" fill="#1C1636"/>
</svg>
