<svg width="20" height="17" viewBox="0 0 20 17" fill="none" xmlns="http://www.w3.org/2000/svg">
<path fill-rule="evenodd" clip-rule="evenodd" d="M18.123 2.01096C20.0354 3.92972 20.0354 7.03657 18.123 8.94898L10.9243 16.1477C10.4297 16.6423 9.62765 16.6423 9.13298 16.1477L1.9343 8.94898C0.0218997 7.03657 0.0218997 3.92972 1.9343 2.01096C3.85306 0.0985597 6.95991 0.0985597 8.87232 2.01096L9.13298 2.27163C9.62765 2.76629 10.4297 2.76629 10.9243 2.27163L11.185 2.01096C13.0974 0.0985597 16.2043 0.0985597 18.123 2.01096ZM13.1101 8.08389C13.1101 7.909 12.9683 7.76723 12.7934 7.76723H11.4635C11.2886 7.76723 11.1469 7.62545 11.1469 7.45056V6.12702C11.1469 5.95213 11.0051 5.81035 10.8302 5.81035H9.22711C9.05222 5.81035 8.91044 5.95213 8.91044 6.12702V7.45056C8.91044 7.62545 8.76866 7.76723 8.59377 7.76723H7.26388C7.08898 7.76723 6.94721 7.909 6.94721 8.08389V9.69334C6.94721 9.86823 7.08898 10.01 7.26388 10.01H8.59377C8.76866 10.01 8.91044 10.1518 8.91044 10.3267V11.6566C8.91044 11.8315 9.05222 11.9732 9.22711 11.9732H10.8302C11.0051 11.9732 11.1469 11.8315 11.1469 11.6566V10.3267C11.1469 10.1518 11.2886 10.01 11.4635 10.01H12.7934C12.9683 10.01 13.1101 9.86823 13.1101 9.69334V8.08389Z" fill="#1C1636"/>
</svg>
