<svg width="20" height="20" viewBox="0 0 20 20" fill="none" xmlns="http://www.w3.org/2000/svg">
<path fill-rule="evenodd" clip-rule="evenodd" d="M3.43492 15.3552C4.12986 14.6253 5.25477 13.3704 6.41967 11.7355C6.1097 10.8156 6.31968 9.75569 7.05462 9.02075L12.9891 3.08624C14.019 2.05133 15.6939 2.05133 16.7238 3.08624C17.7587 4.11616 17.7587 5.79102 16.7238 6.82093L10.7893 12.7554C10.0544 13.4904 8.99446 13.7004 8.07454 13.3904C6.43967 14.5553 5.18478 15.6802 4.45484 16.3751L3.7349 17.1001C3.45492 17.3801 2.99496 17.3801 2.70998 17.1001C2.43001 16.8151 2.43001 16.3551 2.70998 16.0752L3.43492 15.3552ZM13.7591 6.05599C14.154 6.44596 14.794 6.44596 15.1889 6.05599C15.5839 5.66102 15.5839 5.02109 15.1889 4.62612C14.794 4.23115 14.154 4.23115 13.7591 4.62612C13.3691 5.02109 13.3691 5.66102 13.7591 6.05599ZM9.7494 8.74577C9.38492 9.11025 9.38492 9.70118 9.7494 10.0657C10.1139 10.4301 10.7048 10.4301 11.0693 10.0657L12.4992 8.63578C12.8636 8.27131 12.8636 7.68037 12.4992 7.31589C12.1347 6.95141 11.5438 6.95141 11.1793 7.31589L9.7494 8.74577Z" fill="#1C1636"/>
</svg>
