<svg width="20" height="20" viewBox="0 0 20 20" fill="none" xmlns="http://www.w3.org/2000/svg">
<g clip-path="url(#clip0_1964_1070)">
<g clip-path="url(#clip1_1964_1070)">
<path fill-rule="evenodd" clip-rule="evenodd" d="M17.6 15.2567V7.65666C17.6 6.60732 16.7494 5.75666 15.7 5.75666H12.85L11.425 4.93345H10H8.16341L7.15001 5.75666H4.30001C3.25067 5.75666 2.40001 6.60732 2.40001 7.65666V15.2567H17.6ZM4.30001 4.80666C2.726 4.80666 1.45001 6.08265 1.45001 7.65666V16.2067H18.55V7.65666C18.55 6.08265 17.274 4.80666 15.7 4.80666H12.85H10H7.15001H4.30001Z" fill="#1C1636"/>
<path d="M0.5 15.9692C0.5 15.5757 0.818997 15.2567 1.2125 15.2567H18.7875C19.181 15.2567 19.5 15.5757 19.5 15.9692C19.5 17.1497 18.543 18.1067 17.3625 18.1067H2.6375C1.45699 18.1067 0.5 17.1497 0.5 15.9692Z" fill="#1C1636"/>
<path fill-rule="evenodd" clip-rule="evenodd" d="M13.8 5.56663V5.56664C13.8 5.56664 13.8 5.56665 13.8 5.56665C13.8 5.56665 13.8 5.56665 13.8 5.56666C13.8 5.58764 13.7999 5.60862 13.7995 5.62957C13.7823 6.68706 13.3332 7.63953 12.6208 8.31823L10.3986 10.8183C10.1824 11.0615 9.80596 11.0726 9.57581 10.8424L7.54353 8.81015C6.69001 7.95663 6.20759 6.80137 6.20012 5.59509L6.20001 5.56663C6.20001 3.46795 7.90133 1.76663 10 1.76663C12.0987 1.76663 13.8 3.46795 13.8 5.56663ZM9.52511 4.14165C9.52511 3.87931 9.73777 3.66665 10.0001 3.66665C10.2624 3.66665 10.4751 3.87931 10.4751 4.14165C10.4751 4.40398 10.2624 4.61665 10.0001 4.61665C9.73777 4.61665 9.52511 4.40398 9.52511 4.14165ZM9.52513 5.56676C9.52513 5.30443 9.73779 5.09176 10.0001 5.09176C10.2625 5.09176 10.4751 5.30443 10.4751 5.56676V7.46676C10.4751 7.7291 10.2625 7.94176 10.0001 7.94176C9.73779 7.94176 9.52513 7.7291 9.52513 7.46676V5.56676Z" fill="#1C1636"/>
</g>
</g>
<defs>
<clipPath id="clip0_1964_1070">
<rect width="19" height="19" fill="white" transform="translate(0.5 0.5)"/>
</clipPath>
<clipPath id="clip1_1964_1070">
<rect width="19" height="19" fill="white" transform="translate(0.5 0.5)"/>
</clipPath>
</defs>
</svg>
