<svg width="24" height="24" viewBox="0 0 24 24" fill="none" xmlns="http://www.w3.org/2000/svg">
<path d="M17.226 3.69995H7.7485C5.683 3.69995 4 5.38295 4 7.44845V12.9735V13.1435C4 15.2175 5.683 16.892 7.7485 16.892H11.0125C11.48 16.892 11.8625 17.2745 11.8625 17.742V18.5665C11.8625 19.034 11.48 19.4165 11.0125 19.4165H8.9555C8.607 19.4165 8.318 19.7055 8.318 20.054C8.318 20.4025 8.5985 20.7 8.9555 20.7H16.053C16.4015 20.7 16.6905 20.411 16.6905 20.0625C16.6905 19.714 16.4015 19.425 16.053 19.425H13.996C13.5285 19.425 13.146 19.0425 13.146 18.575V17.7505C13.146 17.283 13.5285 16.9005 13.996 16.9005H17.2345C19.3085 16.9005 20.983 15.2175 20.983 13.152V12.982V7.45695C20.9745 5.38295 19.2915 3.69995 17.226 3.69995Z" fill="#1C1636"/>
</svg>
