<svg width="30" height="30" viewBox="0 0 30 30" fill="none" xmlns="http://www.w3.org/2000/svg">
<path fill-rule="evenodd" clip-rule="evenodd" d="M14.5 0C15.3284 0 16 0.671573 16 1.5V3H19.25C21.0449 3 22.5 4.45507 22.5 6.25C22.5 8.04493 21.0449 9.5 19.25 9.5H10C9.72386 9.5 9.5 9.72386 9.5 10C9.5 10.2761 9.72386 10.5 10 10.5H21.5C23.433 10.5 25 12.067 25 14C25 15.933 23.433 17.5 21.5 17.5H8.5C8.22386 17.5 8 17.7239 8 18C8 18.2761 8.22386 18.5 8.5 18.5H18.5C20.433 18.5 22 20.067 22 22C22 23.933 20.433 25.5 18.5 25.5H15V27.5C15 28.3284 14.3284 29 13.5 29C12.6716 29 12 28.3284 12 27.5V25C12 23.6193 13.1193 22.5 14.5 22.5H18.5C18.7761 22.5 19 22.2761 19 22C19 21.7239 18.7761 21.5 18.5 21.5H8.5C6.567 21.5 5 19.933 5 18C5 16.067 6.567 14.5 8.5 14.5H21.5C21.7761 14.5 22 14.2761 22 14C22 13.7239 21.7761 13.5 21.5 13.5H10C8.067 13.5 6.5 11.933 6.5 10C6.5 8.067 8.067 6.5 10 6.5H19.25C19.3881 6.5 19.5 6.38807 19.5 6.25C19.5 6.11193 19.3881 6 19.25 6H15.5C14.1193 6 13 4.88071 13 3.5V1.5C13 0.671573 13.6716 0 14.5 0Z" fill="#7B3FC7"/>
</svg>
