<svg width="30" height="30" viewBox="0 0 30 30" fill="none" xmlns="http://www.w3.org/2000/svg">
<path d="M26.5625 23.0874L24.5 23.5749C24.0375 23.6874 23.675 24.0374 23.575 24.4999L23.1375 26.3374C22.9 27.3374 21.625 27.6499 20.9625 26.8624L17.225 22.5624C16.925 22.2124 17.0875 21.6624 17.5375 21.5499C19.75 21.0124 21.7375 19.7749 23.2 18.0124C23.4375 17.7249 23.8625 17.6874 24.125 17.9499L26.9 20.7249C27.85 21.6749 27.5125 22.8624 26.5625 23.0874Z" fill="#7B3FC7"/>
<path d="M3.37502 23.0874L5.43752 23.5749C5.90002 23.6874 6.26252 24.0374 6.36252 24.4999L6.80002 26.3374C7.03752 27.3374 8.31252 27.6499 8.97502 26.8624L12.7125 22.5624C13.0125 22.2124 12.85 21.6624 12.4 21.5499C10.1875 21.0124 8.20002 19.7749 6.73752 18.0124C6.50002 17.7249 6.07502 17.6874 5.81252 17.9499L3.03752 20.7249C2.08752 21.6749 2.42502 22.8624 3.37502 23.0874Z" fill="#7B3FC7"/>
<path d="M15 2.5C10.1625 2.5 6.25 6.4125 6.25 11.25C6.25 13.0625 6.7875 14.725 7.7125 16.1125C9.0625 18.1125 11.2 19.525 13.6875 19.8875C14.1125 19.9625 14.55 20 15 20C15.45 20 15.8875 19.9625 16.3125 19.8875C18.8 19.525 20.9375 18.1125 22.2875 16.1125C23.2125 14.725 23.75 13.0625 23.75 11.25C23.75 6.4125 19.8375 2.5 15 2.5ZM18.825 10.975L17.7875 12.0125C17.6125 12.1875 17.5125 12.525 17.575 12.775L17.875 14.0625C18.1125 15.075 17.575 15.475 16.675 14.9375L15.425 14.2C15.2 14.0625 14.825 14.0625 14.6 14.2L13.35 14.9375C12.45 15.4625 11.9125 15.075 12.15 14.0625L12.45 12.775C12.5 12.5375 12.4125 12.1875 12.2375 12.0125L11.175 10.975C10.5625 10.3625 10.7625 9.75 11.6125 9.6125L12.95 9.3875C13.175 9.35 13.4375 9.15 13.5375 8.95L14.275 7.475C14.675 6.675 15.325 6.675 15.725 7.475L16.4625 8.95C16.5625 9.15 16.825 9.35 17.0625 9.3875L18.4 9.6125C19.2375 9.75 19.4375 10.3625 18.825 10.975Z" fill="#7B3FC7"/>
</svg>
