<svg width="30" height="30" viewBox="0 0 30 30" fill="none" xmlns="http://www.w3.org/2000/svg">
<path fill-rule="evenodd" clip-rule="evenodd" d="M19.9362 2.78125C19.9362 2.34978 19.5864 2 19.1549 2H11.3424C10.911 2 10.5612 2.34978 10.5612 2.78125C10.5612 3.21272 10.911 3.5625 11.3424 3.5625C11.7739 3.5625 12.1237 3.91228 12.1237 4.34375V8.51888C12.1237 8.87094 11.9959 9.2075 11.8155 9.50984C11.8051 9.52728 11.7948 9.54483 11.7846 9.5625L5.18114 21C3.64154 23.6667 5.56604 27 8.64524 27H21.8521C24.9313 27 26.8558 23.6667 25.3162 21L18.7128 9.5625C18.7026 9.54483 18.6923 9.52728 18.6819 9.50984C18.5015 9.2075 18.3737 8.87094 18.3737 8.51888V4.34375C18.3737 3.91228 18.7235 3.5625 19.1549 3.5625C19.5864 3.5625 19.9362 3.21272 19.9362 2.78125Z" fill="#7B3FC7"/>
<path fill-rule="evenodd" clip-rule="evenodd" d="M16.8111 5.125C16.8111 4.26206 16.1116 3.5625 15.2486 3.5625C14.3857 3.5625 13.6861 4.26205 13.6861 5.125V8.58537C13.6861 9.60009 13.0496 10.4962 12.5423 11.375L7.12963 20.75C5.92682 22.8333 7.43033 25.4375 9.83596 25.4375H20.6613C23.0669 25.4375 24.5704 22.8333 23.3676 20.75L17.9549 11.375C17.4476 10.4962 16.8111 9.60009 16.8111 8.58536V5.125Z" fill="#F2ECF9"/>
<path d="M13.6862 19.1875C11.1862 19.1875 8.99872 18.1458 8.21747 17.625L6.65497 19.9688L5.09247 23.875L6.65497 26.2188H23.0612L24.6237 21.5312C24.3633 19.7083 20.7175 13.7188 19.9362 13.7188C16.8112 13.7188 16.8112 19.1875 13.6862 19.1875Z" fill="#7B3FC7"/>
</svg>
